<svg xmlns="http://www.w3.org/2000/svg" width="375" viewBox="0 0 375 375" height="375" version="1.0"><defs><clipPath id="a"><path d="M 73.023438 82 L 135.273438 82 L 135.273438 143 L 73.023438 143 Z M 73.023438 82"/></clipPath><clipPath id="b"><path d="M 226 196.125 L 284.992188 196.125 L 284.992188 254.625 L 226 254.625 Z M 226 196.125"/></clipPath><clipPath id="c"><path d="M 93 221 L 116 221 L 116 254.96875 L 93 254.96875 Z M 93 221"/></clipPath><clipPath id="d"><path d="M 78 221 L 105 221 L 105 254.96875 L 78 254.96875 Z M 78 221"/></clipPath><clipPath id="e"><path d="M 74.578125 221 L 105 221 L 105 254.96875 L 74.578125 254.96875 Z M 74.578125 221"/></clipPath><clipPath id="f"><path d="M 78 200.21875 L 94 200.21875 L 94 222 L 78 222 Z M 78 200.21875"/></clipPath><clipPath id="g"><path d="M 104 221 L 131 221 L 131 254.96875 L 104 254.96875 Z M 104 221"/></clipPath><clipPath id="h"><path d="M 104 221 L 133.828125 221 L 133.828125 254.96875 L 104 254.96875 Z M 104 221"/></clipPath><clipPath id="i"><path d="M 115 200.21875 L 131 200.21875 L 131 222 L 115 222 Z M 115 200.21875"/></clipPath><clipPath id="j"><path d="M 227.496094 87 L 283.746094 87 L 283.746094 138.734375 L 227.496094 138.734375 Z M 227.496094 87"/></clipPath></defs><path stroke-linecap="round" transform="matrix(2.48426 -2.80976 2.80938 2.48392 126.788 231.275)" fill="none" d="M 4.000376 0.000250807 L 42.194276 0.0000104864" stroke="#FC6D26"/><path transform="matrix(2.48426 -2.80976 2.80938 2.48392 126.788 231.275)" fill="#FC6D26" d="M 3.500093 0.000480802 C 3.500007 0.0978863 3.490321 0.195439 3.471033 0.29314 C 3.451835 0.38937 3.423218 0.482807 3.385869 0.574232 C 3.347831 0.664876 3.301932 0.751346 3.246704 0.833554 C 3.192256 0.915071 3.130038 0.990945 3.060831 1.060485 C 2.990844 1.130715 2.914738 1.192452 2.833894 1.247255 C 2.751579 1.301968 2.664616 1.348277 2.573785 1.385494 C 2.483644 1.42349 2.388944 1.451613 2.292537 1.471513 C 2.19622 1.489943 2.098195 1.50015 1.999332 1.499974 C 1.90194 1.499889 1.8044 1.490201 1.707402 1.471691 C 1.610495 1.45171 1.517071 1.423089 1.425659 1.385735 C 1.335027 1.347692 1.248568 1.301787 1.167062 1.247332 C 1.084866 1.192096 1.009002 1.12987 0.939471 1.060653 C 0.86994 0.991437 0.808212 0.915321 0.752727 0.833685 C 0.698021 0.751359 0.652408 0.665165 0.613726 0.574231 C 0.576515 0.483387 0.547616 0.389365 0.528499 0.292255 C 0.510071 0.195925 0.500556 0.0986667 0.499951 0.000480818 C 0.500127 -0.0983951 0.509813 -0.195948 0.529011 -0.292178 C 0.547518 -0.389189 0.576917 -0.483316 0.613485 -0.57405 C 0.651523 -0.664694 0.698202 -0.751855 0.75265 -0.833372 C 0.807878 -0.91558 0.869316 -0.990763 0.939303 -1.060994 C 1.00851 -1.130534 1.084615 -1.19227 1.16693 -1.246983 C 1.248555 -1.302477 1.334738 -1.348096 1.426349 -1.386002 C 1.51718 -1.423218 1.61119 -1.452122 1.706817 -1.471332 C 1.803914 -1.490452 1.901159 -1.499969 2.000022 -1.499793 C 2.098194 -1.500398 2.195734 -1.49071 2.292641 -1.470729 C 2.389639 -1.452219 2.483063 -1.423597 2.573695 -1.385554 C 2.665107 -1.3482 2.751566 -1.302296 2.833762 -1.24706 C 2.915268 -1.192604 2.991132 -1.130378 3.060663 -1.061162 C 3.130103 -0.990476 3.192612 -0.915049 3.246627 -0.833504 C 3.302113 -0.751868 3.348416 -0.664893 3.385627 -0.57405 C 3.423528 -0.482426 3.451738 -0.389184 3.471635 -0.292764 C 3.490063 -0.196433 3.500268 -0.0983951 3.500093 0.000480802 Z M 3.500093 0.000480802" stroke="#FC6D26"/><path transform="matrix(2.48426 -2.80976 2.80938 2.48392 241.548 101.478)" fill="#FC6D26" d="M -0.50008 -0.000217333 C -0.500256 0.0986586 -0.509943 0.196212 -0.52914 0.292442 C -0.547648 0.389453 -0.576266 0.48289 -0.614304 0.573534 C -0.651652 0.664958 -0.697551 0.751429 -0.752779 0.833636 C -0.807227 0.915153 -0.869445 0.991027 -0.939432 1.061257 C -1.009329 1.130017 -1.084745 1.192534 -1.167059 1.247247 C -1.247904 1.30205 -1.334867 1.34836 -1.425698 1.385576 C -1.51731 1.423482 -1.610539 1.451695 -1.707636 1.470815 C -1.804044 1.490715 -1.901289 1.500232 -2.000151 1.500056 C -2.099014 1.499881 -2.196553 1.490193 -2.292771 1.470993 C -2.388988 1.451793 -2.483193 1.423861 -2.573824 1.385817 C -2.665236 1.348464 -2.750915 1.301869 -2.833891 1.247323 C -2.915398 1.192868 -2.991261 1.130642 -3.060012 1.060736 C -3.130232 0.990739 -3.192741 0.915313 -3.247446 0.832987 C -3.301462 0.751442 -3.348546 0.665157 -3.385757 0.574313 C -3.423658 0.482689 -3.451867 0.389448 -3.470984 0.292337 C -3.490882 0.195917 -3.500398 0.0986586 -3.500222 -0.000217317 C -3.500046 -0.0990932 -3.49036 -0.196646 -3.471162 -0.292877 C -3.451965 -0.389107 -3.423347 -0.482544 -3.385998 -0.573968 C -3.34796 -0.664612 -3.302062 -0.751083 -3.246833 -0.83329 C -3.192385 -0.914807 -3.130167 -0.990681 -3.060961 -1.060221 C -2.990973 -1.130452 -2.914868 -1.192188 -2.833243 -1.247681 C -2.751708 -1.301704 -2.664745 -1.348014 -2.573914 -1.38523 C -2.482992 -1.423917 -2.389763 -1.45213 -2.292666 -1.47125 C -2.195569 -1.490369 -2.098324 -1.499887 -2.000151 -1.500491 C -1.901289 -1.500315 -1.803749 -1.490627 -1.707531 -1.471427 C -1.610624 -1.451447 -1.51642 -1.423515 -1.425788 -1.385472 C -1.334376 -1.348118 -1.248697 -1.301524 -1.167191 -1.247068 C -1.084215 -1.192522 -1.008351 -1.130296 -0.939601 -1.06039 C -0.87007 -0.991174 -0.807561 -0.915748 -0.752856 -0.833422 C -0.69815 -0.751096 -0.651757 -0.665591 -0.613856 -0.573968 C -0.576644 -0.483124 -0.547745 -0.389102 -0.529318 -0.292772 C -0.50942 -0.196351 -0.499905 -0.0990932 -0.50008 -0.000217333 Z M -0.50008 -0.000217333" stroke="#FC6D26"/><path stroke-linecap="round" transform="matrix(2.86323 2.41099 -2.41542 2.86849 118.65 118.869)" fill="none" d="M 3.999578 0.0000111941 L 36.87766 0.000290682" stroke="#2680F8"/><path transform="matrix(2.86323 2.41099 -2.41542 2.86849 118.65 118.869)" fill="#2680F8" d="M 3.500379 0.00016387 C 3.500082 0.0984617 3.490962 0.196004 3.471549 0.292666 C 3.452136 0.389328 3.423354 0.48297 3.385876 0.574389 C 3.347725 0.665011 3.301803 0.751272 3.247309 0.833842 C 3.192144 0.915616 3.13013 0.990889 3.060471 1.060333 C 2.991483 1.130573 2.915101 1.192049 2.833342 1.24715 C 2.751584 1.302252 2.664699 1.348043 2.574034 1.386118 C 2.482697 1.423396 2.389175 1.451617 2.29267 1.471449 C 2.195494 1.490485 2.098401 1.499918 1.999923 1.499621 C 1.902116 1.500122 1.803722 1.490222 1.707555 1.471641 C 1.610716 1.452264 1.516901 1.423535 1.426112 1.385455 C 1.334525 1.348045 1.248106 1.302206 1.166182 1.247142 C 1.084931 1.192874 1.008847 1.130178 0.939275 1.060646 C 0.869704 0.991114 0.807317 0.915544 0.752913 0.833264 C 0.69771 0.751655 0.651834 0.66493 0.614488 0.57376 C 0.576343 0.483261 0.547398 0.389114 0.529 0.292913 C 0.509929 0.195914 0.499806 0.0982034 0.500104 -0.0000944347 C 0.500401 -0.0983922 0.50952 -0.195935 0.528933 -0.292597 C 0.548346 -0.389258 0.577128 -0.4829 0.614606 -0.57432 C 0.651286 -0.665068 0.698008 -0.752 0.752375 -0.833102 C 0.80754 -0.914875 0.86968 -0.991616 0.93934 -1.06106 C 1.008999 -1.130504 1.084709 -1.192776 1.16714 -1.247081 C 1.248899 -1.302182 1.335111 -1.34877 1.426448 -1.386049 C 1.517114 -1.424124 1.610636 -1.452344 1.707812 -1.47138 C 1.803518 -1.490542 1.902081 -1.499849 1.999888 -1.500349 C 2.098366 -1.500052 2.196088 -1.490949 2.292927 -1.471572 C 2.388969 -1.451524 2.483581 -1.423466 2.573698 -1.386182 C 2.664487 -1.348101 2.751578 -1.301466 2.83283 -1.247198 C 2.915552 -1.192805 2.990963 -1.130905 3.061207 -1.060577 C 3.130778 -0.991045 3.192367 -0.914803 3.24757 -0.833194 C 3.301974 -0.750915 3.348648 -0.664861 3.385995 -0.573691 C 3.423342 -0.482521 3.451614 -0.389171 3.471483 -0.292843 C 3.490554 -0.195845 3.500004 -0.0989307 3.500379 0.00016387 Z M 3.500379 0.00016387" stroke="#2680F8"/><path transform="matrix(2.86323 2.41099 -2.41542 2.86849 235.692 217.425)" fill="#2680F8" d="M -0.499876 -0.000270604 C -0.500173 0.0980272 -0.510091 0.196241 -0.528706 0.292232 C -0.548118 0.388893 -0.576228 0.483332 -0.614379 0.573955 C -0.651857 0.665374 -0.69778 0.751635 -0.752945 0.833408 C -0.808111 0.915181 -0.869452 0.991251 -0.939112 1.060695 C -1.008772 1.130139 -1.084481 1.192411 -1.16624 1.247513 C -1.248671 1.301817 -1.334883 1.348405 -1.426221 1.385684 C -1.516886 1.423759 -1.610408 1.451979 -1.707584 1.471015 C -1.804089 1.490848 -1.901181 1.50028 -1.99966 1.499984 C -2.098138 1.499687 -2.19586 1.490584 -2.2927 1.471207 C -2.389539 1.45183 -2.483353 1.423101 -2.57347 1.385817 C -2.665057 1.348407 -2.751477 1.302569 -2.8334 1.247504 C -2.915324 1.19244 -2.990736 1.13054 -3.060307 1.061008 C -3.130551 0.99068 -3.192938 0.915109 -3.247342 0.832829 C -3.301872 0.752017 -3.347748 0.665292 -3.385767 0.573326 C -3.423912 0.482827 -3.452184 0.389477 -3.471255 0.292478 C -3.490326 0.19548 -3.499776 0.0985657 -3.500151 -0.000528908 C -3.499854 -0.0988267 -3.490734 -0.196369 -3.471321 -0.293031 C -3.451908 -0.389693 -3.423127 -0.483335 -3.386447 -0.574083 C -3.348296 -0.664705 -3.301575 -0.751637 -3.247208 -0.83274 C -3.192714 -0.91531 -3.129902 -0.991254 -3.060243 -1.060698 C -2.990583 -1.130142 -2.914874 -1.192414 -2.833115 -1.247515 C -2.752154 -1.301946 -2.66527 -1.347737 -2.574604 -1.385812 C -2.483267 -1.423091 -2.388947 -1.451982 -2.293241 -1.471143 C -2.196064 -1.490179 -2.098173 -1.500283 -1.999695 -1.499986 C -1.901216 -1.49969 -1.803494 -1.490587 -1.707453 -1.470539 C -1.611286 -1.451958 -1.516674 -1.4239 -1.425885 -1.38582 C -1.335096 -1.347739 -1.248676 -1.3019 -1.166753 -1.246836 C -1.084829 -1.191772 -1.008619 -1.130543 -0.939048 -1.061011 C -0.869476 -0.991479 -0.807887 -0.915238 -0.752685 -0.833629 C -0.69828 -0.751349 -0.651607 -0.665295 -0.61426 -0.574125 C -0.576913 -0.482955 -0.547969 -0.388808 -0.528772 -0.293278 C -0.509701 -0.196279 -0.499579 -0.0985684 -0.499876 -0.000270604 Z M -0.499876 -0.000270604" stroke="#2680F8"/><path fill="#F0EFEF" d="M 104.273438 74.742188 C 83.355469 74.742188 66.398438 91.699219 66.398438 112.617188 C 66.398438 133.535156 83.355469 150.492188 104.273438 150.492188 C 125.191406 150.492188 142.148438 133.535156 142.148438 112.617188 C 142.148438 91.699219 125.191406 74.742188 104.273438 74.742188"/><g clip-path="url(#a)"><path d="M 104.144531 82.011719 C 86.957031 82.011719 73.023438 95.949219 73.023438 113.140625 C 73.023438 126.890625 81.9375 138.558594 94.308594 142.671875 C 95.863281 142.957031 96.433594 142 96.433594 141.175781 C 96.433594 140.433594 96.40625 138.476562 96.390625 135.878906 C 87.734375 137.761719 85.90625 131.707031 85.90625 131.707031 C 84.492188 128.113281 82.453125 127.15625 82.453125 127.15625 C 79.625 125.222656 82.664062 125.265625 82.664062 125.265625 C 85.789062 125.484375 87.433594 128.472656 87.433594 128.472656 C 90.207031 133.230469 94.71875 131.855469 96.488281 131.058594 C 96.773438 129.046875 97.578125 127.675781 98.464844 126.898438 C 91.554688 126.113281 84.289062 123.441406 84.289062 111.515625 C 84.289062 108.117188 85.503906 105.339844 87.492188 103.164062 C 87.171875 102.375 86.105469 99.210938 87.796875 94.925781 C 87.796875 94.925781 90.414062 94.085938 96.359375 98.113281 C 98.839844 97.425781 101.503906 97.082031 104.148438 97.066406 C 106.792969 97.082031 109.457031 97.425781 111.941406 98.113281 C 117.882812 94.085938 120.492188 94.925781 120.492188 94.925781 C 122.191406 99.210938 121.121094 102.375 120.800781 103.164062 C 122.796875 105.339844 124 108.117188 124 111.515625 C 124 123.472656 116.722656 126.101562 109.789062 126.871094 C 110.90625 127.832031 111.902344 129.734375 111.902344 132.636719 C 111.902344 136.796875 111.863281 140.152344 111.863281 141.175781 C 111.863281 142.007812 112.421875 142.972656 114.003906 142.671875 C 126.363281 138.542969 135.273438 126.886719 135.273438 113.140625 C 135.273438 95.949219 121.335938 82.011719 104.144531 82.011719 Z M 104.144531 82.011719" fill-rule="evenodd"/></g><path fill="#F0EFEF" d="M 255.476562 74.742188 C 234.558594 74.742188 217.601562 91.699219 217.601562 112.617188 C 217.601562 133.535156 234.558594 150.492188 255.476562 150.492188 C 276.394531 150.492188 293.351562 133.535156 293.351562 112.617188 C 293.351562 91.699219 276.394531 74.742188 255.476562 74.742188"/><path fill="#F0EFEF" d="M 255.476562 187.5 C 234.558594 187.5 217.601562 204.457031 217.601562 225.375 C 217.601562 246.292969 234.558594 263.25 255.476562 263.25 C 276.394531 263.25 293.351562 246.292969 293.351562 225.375 C 293.351562 204.457031 276.394531 187.5 255.476562 187.5"/><path fill="#FFF" d="M 229.136719 234.183594 L 255.367188 251.652344 L 281.597656 234.183594 L 281.597656 216.476562 L 255.367188 199.007812 L 229.136719 216.476562 Z M 281.597656 234.183594 L 255.367188 216.476562 L 229.136719 234.183594 M 229.136719 216.476562 L 255.367188 233.945312 L 281.597656 216.476562 M 255.367188 199.007812 L 255.367188 216.476562 M 255.367188 234.183594 L 255.367188 251.652344"/><g clip-path="url(#b)"><path stroke-linecap="round" transform="matrix(.90642 0 0 .9098 226.361 196.217)" fill="none" stroke-linejoin="round" d="M 3.062142 41.731038 L 32.000735 60.931734 L 60.939328 41.731038 L 60.939328 22.268436 L 32.000735 3.06774 L 3.062142 22.268436 Z M 60.939328 41.731038 L 32.000735 22.268436 L 3.062142 41.731038 M 3.062142 22.268436 L 32.000735 41.469132 L 60.939328 22.268436 M 32.000735 3.06774 L 32.000735 22.268436 M 32.000735 41.731038 L 32.000735 60.931734" stroke="#000" stroke-width="6.05"/></g><path fill="#F0EFEF" d="M 104.273438 187.5 C 83.355469 187.5 66.398438 204.457031 66.398438 225.375 C 66.398438 246.292969 83.355469 263.25 104.273438 263.25 C 125.191406 263.25 142.148438 246.292969 142.148438 225.375 C 142.148438 204.457031 125.191406 187.5 104.273438 187.5"/><g clip-path="url(#c)"><path fill="#E24329" d="M 104.203125 255.101562 L 115.007812 221.5625 L 93.402344 221.5625 Z M 104.203125 255.101562"/></g><g clip-path="url(#d)"><path fill="#FC6D26" d="M 104.203125 255.101562 L 93.402344 221.5625 L 78.257812 221.5625 Z M 104.203125 255.101562"/></g><g clip-path="url(#e)"><path fill="#FCA326" d="M 78.257812 221.558594 L 74.976562 231.753906 C 74.675781 232.683594 75.003906 233.699219 75.785156 234.273438 L 104.203125 255.101562 Z M 78.257812 221.558594"/></g><g clip-path="url(#f)"><path fill="#E24329" d="M 78.257812 221.5625 L 93.402344 221.5625 L 86.890625 201.359375 C 86.558594 200.316406 85.101562 200.320312 84.765625 201.359375 Z M 78.257812 221.5625"/></g><g clip-path="url(#g)"><path fill="#FC6D26" d="M 104.203125 255.101562 L 115.007812 221.5625 L 130.152344 221.5625 Z M 104.203125 255.101562"/></g><g clip-path="url(#h)"><path fill="#FCA326" d="M 130.152344 221.558594 L 133.433594 231.753906 C 133.734375 232.683594 133.40625 233.699219 132.621094 234.273438 L 104.203125 255.101562 Z M 130.152344 221.558594"/></g><g clip-path="url(#i)"><path fill="#E24329" d="M 130.152344 221.5625 L 115.007812 221.5625 L 121.519531 201.359375 C 121.851562 200.320312 123.308594 200.324219 123.644531 201.359375 Z M 130.152344 221.5625"/></g><g clip-path="url(#j)"><path fill="#2680F8" d="M 237.523438 138.636719 L 274.074219 138.636719 C 274.957031 138.648438 275.722656 137.992188 275.867188 137.097656 L 283.488281 89.222656 C 283.648438 88.222656 282.984375 87.28125 282.007812 87.121094 C 281.90625 87.109375 281.804688 87.101562 281.695312 87.101562 L 229.3125 87.078125 C 228.328125 87.066406 227.503906 87.867188 227.496094 88.894531 C 227.496094 88.996094 227.507812 89.109375 227.515625 89.214844 L 235.136719 136.546875 C 235.328125 137.742188 236.339844 138.625 237.523438 138.636719 Z M 264.222656 104.398438 L 261.398438 121.285156 L 249.726562 121.285156 L 246.570312 104.398438 Z M 264.222656 104.398438"/></g></svg>