<svg xmlns="http://www.w3.org/2000/svg" xmlns:xlink="http://www.w3.org/1999/xlink" width="375" viewBox="0 0 375 375" height="375" version="1.0"><defs><clipPath id="a"><path d="M 134 128 L 246 128 L 246 257 L 134 257 Z M 134 128"/></clipPath><clipPath id="b"><path d="M 134 160.503906 L 134 224.78125 L 189.738281 256.921875 L 245.476562 224.78125 L 245.476562 160.503906 L 189.738281 128.367188 Z M 134 160.503906"/></clipPath><clipPath id="d"><path d="M 150 192 L 230 192 L 230 257 L 150 257 Z M 150 192"/></clipPath><clipPath id="e"><path d="M 150.136719 234.078125 L 189.738281 256.921875 L 229.339844 234.078125 L 229.339844 192.644531 L 150.136719 192.644531 Z M 150.136719 234.078125"/></clipPath><clipPath id="g"><path d="M 150 153 L 230 153 L 230 233 L 150 233 Z M 150 153"/></clipPath><clipPath id="h"><path d="M 229.339844 192.644531 C 229.339844 193.9375 229.277344 195.230469 229.148438 196.519531 C 229.019531 197.808594 228.832031 199.089844 228.578125 200.359375 C 228.324219 201.632812 228.011719 202.886719 227.632812 204.125 C 227.257812 205.367188 226.820312 206.585938 226.324219 207.78125 C 225.828125 208.976562 225.273438 210.148438 224.664062 211.289062 C 224.050781 212.433594 223.386719 213.542969 222.664062 214.621094 C 221.945312 215.695312 221.171875 216.734375 220.351562 217.738281 C 219.527344 218.738281 218.65625 219.699219 217.738281 220.613281 C 216.824219 221.53125 215.863281 222.398438 214.859375 223.21875 C 213.859375 224.042969 212.816406 224.8125 211.738281 225.53125 C 210.660156 226.253906 209.550781 226.917969 208.40625 227.527344 C 207.261719 228.140625 206.089844 228.691406 204.894531 229.1875 C 203.695312 229.683594 202.476562 230.121094 201.234375 230.496094 C 199.992188 230.871094 198.734375 231.1875 197.464844 231.4375 C 196.191406 231.691406 194.910156 231.882812 193.621094 232.007812 C 192.328125 232.136719 191.035156 232.199219 189.738281 232.199219 C 188.441406 232.199219 187.148438 232.136719 185.855469 232.007812 C 184.566406 231.882812 183.285156 231.691406 182.011719 231.4375 C 180.742188 231.1875 179.484375 230.871094 178.242188 230.496094 C 177 230.121094 175.78125 229.683594 174.582031 229.1875 C 173.386719 228.691406 172.214844 228.140625 171.070312 227.527344 C 169.925781 226.917969 168.816406 226.253906 167.738281 225.53125 C 166.660156 224.8125 165.617188 224.042969 164.617188 223.21875 C 163.613281 222.398438 162.652344 221.53125 161.734375 220.613281 C 160.820312 219.699219 159.949219 218.738281 159.125 217.738281 C 158.304688 216.734375 157.53125 215.695312 156.8125 214.621094 C 156.089844 213.542969 155.425781 212.433594 154.8125 211.289062 C 154.203125 210.148438 153.648438 208.976562 153.152344 207.78125 C 152.65625 206.585938 152.21875 205.367188 151.84375 204.125 C 151.464844 202.886719 151.152344 201.632812 150.898438 200.359375 C 150.644531 199.089844 150.457031 197.808594 150.328125 196.519531 C 150.199219 195.230469 150.136719 193.9375 150.136719 192.644531 C 150.136719 191.347656 150.199219 190.054688 150.328125 188.765625 C 150.457031 187.476562 150.644531 186.199219 150.898438 184.925781 C 151.152344 183.65625 151.464844 182.402344 151.84375 181.160156 C 152.21875 179.921875 152.65625 178.703125 153.152344 177.507812 C 153.648438 176.308594 154.203125 175.140625 154.8125 173.996094 C 155.425781 172.855469 156.089844 171.746094 156.8125 170.667969 C 157.53125 169.589844 158.304688 168.550781 159.125 167.550781 C 159.949219 166.546875 160.820312 165.589844 161.734375 164.671875 C 162.652344 163.757812 163.613281 162.886719 164.617188 162.066406 C 165.617188 161.246094 166.660156 160.472656 167.738281 159.753906 C 168.816406 159.035156 169.925781 158.371094 171.070312 157.757812 C 172.214844 157.148438 173.386719 156.59375 174.582031 156.097656 C 175.78125 155.601562 177 155.167969 178.242188 154.792969 C 179.484375 154.414062 180.742188 154.101562 182.011719 153.847656 C 183.285156 153.59375 184.566406 153.40625 185.855469 153.277344 C 187.148438 153.152344 188.441406 153.089844 189.738281 153.089844 C 191.035156 153.089844 192.328125 153.152344 193.621094 153.277344 C 194.910156 153.40625 196.191406 153.59375 197.464844 153.847656 C 198.734375 154.101562 199.992188 154.414062 201.234375 154.792969 C 202.476562 155.167969 203.695312 155.601562 204.894531 156.097656 C 206.089844 156.59375 207.261719 157.148438 208.40625 157.757812 C 209.550781 158.371094 210.660156 159.035156 211.738281 159.753906 C 212.816406 160.472656 213.859375 161.246094 214.859375 162.066406 C 215.863281 162.886719 216.824219 163.757812 217.738281 164.671875 C 218.65625 165.589844 219.527344 166.546875 220.351562 167.550781 C 221.171875 168.550781 221.945312 169.589844 222.664062 170.667969 C 223.386719 171.746094 224.050781 172.855469 224.664062 173.996094 C 225.273438 175.140625 225.828125 176.308594 226.324219 177.507812 C 226.820312 178.703125 227.257812 179.921875 227.632812 181.160156 C 228.011719 182.402344 228.324219 183.65625 228.578125 184.925781 C 228.832031 186.199219 229.019531 187.476562 229.148438 188.765625 C 229.277344 190.054688 229.339844 191.347656 229.339844 192.644531 Z M 229.339844 192.644531"/></clipPath><clipPath id="j"><path d="M 159 204 L 220 204 L 220 233 L 159 233 Z M 159 204"/></clipPath><clipPath id="k"><path d="M 220 218.125 C 220 218.585938 219.953125 219.042969 219.855469 219.503906 C 219.757812 219.960938 219.613281 220.417969 219.417969 220.871094 C 219.226562 221.320312 218.984375 221.769531 218.695312 222.210938 C 218.410156 222.652344 218.074219 223.085938 217.695312 223.511719 C 217.316406 223.9375 216.894531 224.351562 216.425781 224.757812 C 215.960938 225.164062 215.449219 225.558594 214.898438 225.945312 C 214.347656 226.328125 213.757812 226.695312 213.128906 227.054688 C 212.503906 227.410156 211.835938 227.75 211.136719 228.078125 C 210.4375 228.402344 209.703125 228.710938 208.9375 229.003906 C 208.167969 229.296875 207.375 229.570312 206.550781 229.828125 C 205.726562 230.082031 204.878906 230.320312 204.003906 230.539062 C 203.128906 230.753906 202.234375 230.953125 201.320312 231.128906 C 200.402344 231.304688 199.472656 231.460938 198.523438 231.59375 C 197.574219 231.726562 196.613281 231.839844 195.640625 231.929688 C 194.667969 232.019531 193.691406 232.085938 192.703125 232.132812 C 191.71875 232.175781 190.730469 232.199219 189.738281 232.199219 C 188.746094 232.199219 187.757812 232.175781 186.773438 232.132812 C 185.785156 232.085938 184.804688 232.019531 183.835938 231.929688 C 182.863281 231.839844 181.902344 231.726562 180.953125 231.59375 C 180.003906 231.460938 179.074219 231.304688 178.15625 231.128906 C 177.242188 230.953125 176.347656 230.753906 175.472656 230.539062 C 174.597656 230.320312 173.75 230.082031 172.925781 229.828125 C 172.101562 229.570312 171.304688 229.296875 170.539062 229.003906 C 169.773438 228.710938 169.039062 228.402344 168.339844 228.078125 C 167.640625 227.75 166.972656 227.410156 166.34375 227.054688 C 165.71875 226.695312 165.128906 226.328125 164.578125 225.945312 C 164.027344 225.558594 163.515625 225.164062 163.050781 224.757812 C 162.582031 224.351562 162.160156 223.9375 161.78125 223.511719 C 161.402344 223.085938 161.066406 222.652344 160.78125 222.210938 C 160.492188 221.769531 160.25 221.320312 160.058594 220.871094 C 159.863281 220.417969 159.71875 219.960938 159.621094 219.503906 C 159.523438 219.042969 159.476562 218.585938 159.476562 218.125 C 159.476562 217.664062 159.523438 217.203125 159.621094 216.746094 C 159.71875 216.285156 159.863281 215.832031 160.058594 215.378906 C 160.25 214.925781 160.492188 214.480469 160.78125 214.039062 C 161.066406 213.597656 161.402344 213.164062 161.78125 212.738281 C 162.160156 212.3125 162.582031 211.894531 163.050781 211.488281 C 163.515625 211.082031 164.027344 210.6875 164.578125 210.304688 C 165.128906 209.921875 165.71875 209.550781 166.34375 209.195312 C 166.972656 208.839844 167.640625 208.496094 168.339844 208.171875 C 169.039062 207.84375 169.773438 207.535156 170.539062 207.242188 C 171.304688 206.953125 172.101562 206.675781 172.925781 206.421875 C 173.75 206.164062 174.597656 205.929688 175.472656 205.710938 C 176.347656 205.492188 177.242188 205.296875 178.15625 205.121094 C 179.074219 204.945312 180.003906 204.789062 180.953125 204.65625 C 181.902344 204.519531 182.863281 204.410156 183.835938 204.320312 C 184.804688 204.230469 185.785156 204.160156 186.773438 204.117188 C 187.757812 204.070312 188.746094 204.050781 189.738281 204.050781 C 190.730469 204.050781 191.71875 204.070312 192.703125 204.117188 C 193.691406 204.160156 194.667969 204.230469 195.640625 204.320312 C 196.613281 204.410156 197.574219 204.519531 198.523438 204.65625 C 199.472656 204.789062 200.402344 204.945312 201.320312 205.121094 C 202.234375 205.296875 203.128906 205.492188 204.003906 205.710938 C 204.878906 205.929688 205.726562 206.164062 206.550781 206.421875 C 207.375 206.675781 208.167969 206.953125 208.9375 207.242188 C 209.703125 207.535156 210.4375 207.84375 211.136719 208.171875 C 211.835938 208.496094 212.503906 208.839844 213.128906 209.195312 C 213.757812 209.550781 214.347656 209.921875 214.898438 210.304688 C 215.449219 210.6875 215.960938 211.082031 216.425781 211.488281 C 216.894531 211.894531 217.316406 212.3125 217.695312 212.738281 C 218.074219 213.164062 218.410156 213.597656 218.695312 214.039062 C 218.984375 214.480469 219.226562 214.925781 219.417969 215.378906 C 219.613281 215.832031 219.757812 216.285156 219.855469 216.746094 C 219.953125 217.203125 220 217.664062 220 218.125 Z M 220 218.125"/></clipPath><clipPath id="m"><path d="M 175 204 L 205 204 L 205 217 L 175 217 Z M 175 204"/></clipPath><clipPath id="n"><path d="M 189.738281 204.082031 C 184.710938 204.09375 179.859375 205.027344 175.183594 206.882812 C 175.488281 207.589844 175.84375 208.273438 176.246094 208.925781 C 176.648438 209.582031 177.097656 210.203125 177.59375 210.792969 C 178.089844 211.382812 178.621094 211.933594 179.199219 212.445312 C 179.773438 212.960938 180.382812 213.425781 181.023438 213.851562 C 181.667969 214.273438 182.339844 214.648438 183.035156 214.972656 C 183.734375 215.296875 184.453125 215.570312 185.191406 215.792969 C 185.929688 216.011719 186.679688 216.179688 187.441406 216.292969 C 188.203125 216.402344 188.96875 216.457031 189.738281 216.457031 C 190.507812 216.457031 191.273438 216.402344 192.035156 216.292969 C 192.796875 216.179688 193.546875 216.011719 194.285156 215.792969 C 195.023438 215.570312 195.742188 215.296875 196.441406 214.972656 C 197.136719 214.648438 197.808594 214.273438 198.453125 213.851562 C 199.09375 213.425781 199.703125 212.960938 200.277344 212.445312 C 200.855469 211.933594 201.386719 211.382812 201.882812 210.792969 C 202.378906 210.203125 202.828125 209.582031 203.230469 208.925781 C 203.632812 208.273438 203.988281 207.589844 204.292969 206.882812 C 199.617188 205.027344 194.765625 204.09375 189.738281 204.082031 Z M 189.738281 204.082031"/></clipPath><clipPath id="p"><path d="M 173 168 L 206 168 L 206 201 L 173 201 Z M 173 168"/></clipPath><clipPath id="q"><path d="M 205.578125 184.765625 C 205.578125 185.285156 205.554688 185.800781 205.503906 186.316406 C 205.453125 186.832031 205.375 187.34375 205.273438 187.851562 C 205.171875 188.359375 205.046875 188.863281 204.894531 189.359375 C 204.746094 189.855469 204.570312 190.339844 204.371094 190.820312 C 204.175781 191.300781 203.953125 191.765625 203.707031 192.222656 C 203.464844 192.679688 203.195312 193.125 202.910156 193.554688 C 202.621094 193.988281 202.3125 194.402344 201.984375 194.804688 C 201.652344 195.203125 201.304688 195.585938 200.9375 195.953125 C 200.570312 196.320312 200.1875 196.667969 199.789062 196.996094 C 199.386719 197.324219 198.96875 197.632812 198.539062 197.921875 C 198.105469 198.210938 197.664062 198.476562 197.207031 198.71875 C 196.746094 198.964844 196.28125 199.183594 195.800781 199.382812 C 195.320312 199.582031 194.832031 199.757812 194.335938 199.90625 C 193.839844 200.058594 193.335938 200.183594 192.828125 200.285156 C 192.320312 200.386719 191.808594 200.460938 191.289062 200.511719 C 190.773438 200.5625 190.257812 200.585938 189.738281 200.585938 C 189.21875 200.585938 188.703125 200.5625 188.1875 200.511719 C 187.667969 200.460938 187.15625 200.386719 186.648438 200.285156 C 186.140625 200.183594 185.636719 200.058594 185.140625 199.90625 C 184.644531 199.757812 184.15625 199.582031 183.675781 199.382812 C 183.195312 199.183594 182.730469 198.964844 182.269531 198.71875 C 181.8125 198.476562 181.371094 198.210938 180.9375 197.921875 C 180.507812 197.632812 180.089844 197.324219 179.6875 196.996094 C 179.289062 196.667969 178.902344 196.320312 178.539062 195.953125 C 178.171875 195.585938 177.824219 195.203125 177.492188 194.804688 C 177.164062 194.402344 176.855469 193.988281 176.566406 193.554688 C 176.277344 193.125 176.011719 192.679688 175.769531 192.222656 C 175.523438 191.765625 175.300781 191.300781 175.105469 190.820312 C 174.90625 190.339844 174.730469 189.855469 174.578125 189.359375 C 174.429688 188.863281 174.304688 188.359375 174.203125 187.851562 C 174.101562 187.34375 174.023438 186.832031 173.972656 186.316406 C 173.921875 185.800781 173.898438 185.285156 173.898438 184.765625 C 173.898438 184.246094 173.921875 183.730469 173.972656 183.214844 C 174.023438 182.699219 174.101562 182.1875 174.203125 181.679688 C 174.304688 181.171875 174.429688 180.667969 174.578125 180.171875 C 174.730469 179.675781 174.90625 179.1875 175.105469 178.710938 C 175.300781 178.230469 175.523438 177.765625 175.769531 177.308594 C 176.011719 176.851562 176.277344 176.40625 176.566406 175.976562 C 176.855469 175.542969 177.164062 175.128906 177.492188 174.726562 C 177.824219 174.328125 178.171875 173.945312 178.539062 173.578125 C 178.902344 173.210938 179.289062 172.863281 179.6875 172.535156 C 180.089844 172.207031 180.507812 171.898438 180.9375 171.609375 C 181.371094 171.320312 181.8125 171.054688 182.269531 170.8125 C 182.730469 170.566406 183.195312 170.347656 183.675781 170.148438 C 184.15625 169.949219 184.644531 169.773438 185.140625 169.625 C 185.636719 169.472656 186.140625 169.347656 186.648438 169.246094 C 187.15625 169.144531 187.667969 169.070312 188.1875 169.019531 C 188.703125 168.96875 189.21875 168.941406 189.738281 168.941406 C 190.257812 168.941406 190.773438 168.96875 191.289062 169.019531 C 191.808594 169.070312 192.320312 169.144531 192.828125 169.246094 C 193.335938 169.347656 193.839844 169.472656 194.335938 169.625 C 194.832031 169.773438 195.320312 169.949219 195.800781 170.148438 C 196.28125 170.347656 196.746094 170.566406 197.207031 170.8125 C 197.664062 171.054688 198.105469 171.320312 198.539062 171.609375 C 198.96875 171.898438 199.386719 172.207031 199.789062 172.535156 C 200.1875 172.863281 200.570312 173.210938 200.9375 173.578125 C 201.304688 173.945312 201.652344 174.328125 201.984375 174.726562 C 202.3125 175.128906 202.621094 175.542969 202.910156 175.976562 C 203.195312 176.40625 203.464844 176.851562 203.707031 177.308594 C 203.953125 177.765625 204.175781 178.230469 204.371094 178.710938 C 204.570312 179.1875 204.746094 179.675781 204.894531 180.171875 C 205.046875 180.667969 205.171875 181.171875 205.273438 181.679688 C 205.375 182.1875 205.453125 182.699219 205.503906 183.214844 C 205.554688 183.730469 205.578125 184.246094 205.578125 184.765625 Z M 205.578125 184.765625"/></clipPath><clipPath id="s"><path d="M 184 123.421875 L 195 123.421875 L 195 134 L 184 134 Z M 184 123.421875"/></clipPath><clipPath id="t"><path d="M 194.6875 128.367188 C 194.691406 128.695312 194.660156 129.019531 194.597656 129.339844 C 194.535156 129.660156 194.445312 129.976562 194.320312 130.277344 C 194.195312 130.582031 194.042969 130.871094 193.863281 131.144531 C 193.679688 131.417969 193.476562 131.671875 193.246094 131.902344 C 193.011719 132.136719 192.761719 132.34375 192.488281 132.527344 C 192.21875 132.710938 191.929688 132.863281 191.628906 132.992188 C 191.324219 133.117188 191.011719 133.214844 190.691406 133.277344 C 190.371094 133.34375 190.042969 133.375 189.714844 133.375 C 189.386719 133.375 189.0625 133.34375 188.742188 133.28125 C 188.417969 133.21875 188.105469 133.125 187.804688 133 C 187.5 132.875 187.210938 132.71875 186.9375 132.539062 C 186.667969 132.355469 186.414062 132.148438 186.183594 131.917969 C 185.949219 131.6875 185.742188 131.433594 185.558594 131.160156 C 185.378906 130.890625 185.226562 130.601562 185.097656 130.296875 C 184.972656 129.996094 184.878906 129.683594 184.816406 129.363281 C 184.753906 129.039062 184.722656 128.714844 184.722656 128.386719 C 184.722656 128.058594 184.753906 127.734375 184.820312 127.414062 C 184.886719 127.09375 184.980469 126.78125 185.109375 126.480469 C 185.234375 126.175781 185.390625 125.890625 185.574219 125.617188 C 185.757812 125.34375 185.964844 125.09375 186.199219 124.863281 C 186.429688 124.632812 186.683594 124.425781 186.957031 124.246094 C 187.230469 124.066406 187.519531 123.914062 187.824219 123.789062 C 188.128906 123.664062 188.441406 123.574219 188.761719 123.511719 C 189.085938 123.449219 189.410156 123.417969 189.738281 123.421875 C 190.0625 123.421875 190.386719 123.453125 190.703125 123.515625 C 191.023438 123.578125 191.332031 123.671875 191.632812 123.796875 C 191.933594 123.921875 192.21875 124.074219 192.488281 124.253906 C 192.757812 124.433594 193.007812 124.640625 193.238281 124.871094 C 193.46875 125.097656 193.671875 125.347656 193.855469 125.617188 C 194.035156 125.890625 194.1875 126.171875 194.3125 126.472656 C 194.4375 126.773438 194.53125 127.082031 194.59375 127.402344 C 194.65625 127.71875 194.6875 128.042969 194.6875 128.367188 Z M 194.6875 128.367188"/></clipPath><clipPath id="v"><path d="M 184 251 L 195 251 L 195 262 L 184 262 Z M 184 251"/></clipPath><clipPath id="w"><path d="M 194.6875 256.921875 C 194.691406 257.25 194.660156 257.574219 194.597656 257.894531 C 194.535156 258.21875 194.445312 258.53125 194.320312 258.832031 C 194.195312 259.136719 194.042969 259.425781 193.863281 259.699219 C 193.679688 259.972656 193.476562 260.226562 193.246094 260.457031 C 193.011719 260.691406 192.761719 260.898438 192.488281 261.082031 C 192.21875 261.265625 191.929688 261.421875 191.628906 261.546875 C 191.324219 261.671875 191.011719 261.769531 190.691406 261.832031 C 190.371094 261.898438 190.042969 261.929688 189.714844 261.933594 C 189.386719 261.933594 189.0625 261.902344 188.742188 261.835938 C 188.417969 261.773438 188.105469 261.679688 187.804688 261.554688 C 187.5 261.429688 187.210938 261.277344 186.9375 261.09375 C 186.667969 260.914062 186.414062 260.707031 186.183594 260.472656 C 185.949219 260.242188 185.742188 259.988281 185.558594 259.71875 C 185.378906 259.445312 185.226562 259.15625 185.097656 258.855469 C 184.972656 258.550781 184.878906 258.238281 184.816406 257.917969 C 184.753906 257.597656 184.722656 257.269531 184.722656 256.945312 C 184.722656 256.617188 184.753906 256.292969 184.820312 255.96875 C 184.886719 255.648438 184.980469 255.335938 185.109375 255.035156 C 185.234375 254.730469 185.390625 254.445312 185.574219 254.171875 C 185.757812 253.902344 185.964844 253.648438 186.199219 253.417969 C 186.429688 253.1875 186.683594 252.984375 186.957031 252.800781 C 187.230469 252.621094 187.519531 252.46875 187.824219 252.34375 C 188.128906 252.222656 188.441406 252.128906 188.761719 252.066406 C 189.085938 252.003906 189.410156 251.976562 189.738281 251.976562 C 190.0625 251.976562 190.386719 252.007812 190.703125 252.070312 C 191.023438 252.136719 191.332031 252.230469 191.632812 252.351562 C 191.933594 252.476562 192.21875 252.628906 192.488281 252.808594 C 192.757812 252.992188 193.007812 253.195312 193.238281 253.425781 C 193.46875 253.65625 193.671875 253.90625 193.855469 254.175781 C 194.035156 254.445312 194.1875 254.730469 194.3125 255.03125 C 194.4375 255.328125 194.53125 255.636719 194.59375 255.957031 C 194.65625 256.273438 194.6875 256.597656 194.6875 256.921875 Z M 194.6875 256.921875"/></clipPath><clipPath id="y"><path d="M 240 155 L 250.960938 155 L 250.960938 166 L 240 166 Z M 240 155"/></clipPath><clipPath id="z"><path d="M 250.425781 160.539062 C 250.425781 160.863281 250.394531 161.183594 250.332031 161.503906 C 250.269531 161.820312 250.175781 162.128906 250.050781 162.429688 C 249.925781 162.730469 249.773438 163.015625 249.59375 163.285156 C 249.410156 163.554688 249.207031 163.804688 248.976562 164.035156 C 248.746094 164.261719 248.496094 164.46875 248.226562 164.648438 C 247.957031 164.828125 247.671875 164.980469 247.371094 165.105469 C 247.070312 165.230469 246.761719 165.324219 246.441406 165.386719 C 246.125 165.449219 245.800781 165.480469 245.476562 165.480469 C 245.152344 165.480469 244.828125 165.449219 244.511719 165.386719 C 244.191406 165.324219 243.882812 165.230469 243.582031 165.105469 C 243.28125 164.980469 242.996094 164.828125 242.726562 164.648438 C 242.457031 164.46875 242.207031 164.261719 241.976562 164.035156 C 241.746094 163.804688 241.542969 163.554688 241.359375 163.285156 C 241.179688 163.015625 241.027344 162.730469 240.902344 162.429688 C 240.777344 162.128906 240.683594 161.820312 240.621094 161.503906 C 240.558594 161.183594 240.527344 160.863281 240.527344 160.539062 C 240.527344 160.214844 240.558594 159.890625 240.621094 159.574219 C 240.683594 159.253906 240.777344 158.945312 240.902344 158.644531 C 241.027344 158.34375 241.179688 158.0625 241.359375 157.789062 C 241.542969 157.519531 241.746094 157.269531 241.976562 157.042969 C 242.207031 156.8125 242.457031 156.605469 242.726562 156.425781 C 242.996094 156.246094 243.28125 156.09375 243.582031 155.96875 C 243.882812 155.84375 244.191406 155.75 244.511719 155.6875 C 244.828125 155.625 245.152344 155.59375 245.476562 155.59375 C 245.800781 155.59375 246.125 155.625 246.441406 155.6875 C 246.761719 155.75 247.070312 155.84375 247.371094 155.96875 C 247.671875 156.09375 247.957031 156.246094 248.226562 156.425781 C 248.496094 156.605469 248.746094 156.8125 248.976562 157.042969 C 249.207031 157.269531 249.410156 157.519531 249.59375 157.789062 C 249.773438 158.0625 249.925781 158.34375 250.050781 158.644531 C 250.175781 158.945312 250.269531 159.253906 250.332031 159.574219 C 250.394531 159.890625 250.425781 160.214844 250.425781 160.539062 Z M 250.425781 160.539062"/></clipPath><clipPath id="B"><path d="M 240 220 L 250.960938 220 L 250.960938 230 L 240 230 Z M 240 220"/></clipPath><clipPath id="C"><path d="M 250.425781 225.011719 C 250.425781 225.339844 250.394531 225.660156 250.332031 225.976562 C 250.269531 226.296875 250.175781 226.605469 250.050781 226.90625 C 249.925781 227.207031 249.773438 227.492188 249.59375 227.761719 C 249.410156 228.03125 249.207031 228.28125 248.976562 228.507812 C 248.746094 228.738281 248.496094 228.945312 248.226562 229.125 C 247.957031 229.304688 247.671875 229.457031 247.371094 229.582031 C 247.070312 229.707031 246.761719 229.800781 246.441406 229.863281 C 246.125 229.925781 245.800781 229.957031 245.476562 229.957031 C 245.152344 229.957031 244.828125 229.925781 244.511719 229.863281 C 244.191406 229.800781 243.882812 229.707031 243.582031 229.582031 C 243.28125 229.457031 242.996094 229.304688 242.726562 229.125 C 242.457031 228.945312 242.207031 228.738281 241.976562 228.507812 C 241.746094 228.28125 241.542969 228.03125 241.359375 227.761719 C 241.179688 227.492188 241.027344 227.207031 240.902344 226.90625 C 240.777344 226.605469 240.683594 226.296875 240.621094 225.976562 C 240.558594 225.660156 240.527344 225.339844 240.527344 225.011719 C 240.527344 224.6875 240.558594 224.367188 240.621094 224.046875 C 240.683594 223.730469 240.777344 223.421875 240.902344 223.121094 C 241.027344 222.820312 241.179688 222.535156 241.359375 222.265625 C 241.542969 221.996094 241.746094 221.746094 241.976562 221.515625 C 242.207031 221.289062 242.457031 221.082031 242.726562 220.902344 C 242.996094 220.722656 243.28125 220.570312 243.582031 220.445312 C 243.882812 220.320312 244.191406 220.226562 244.511719 220.164062 C 244.828125 220.101562 245.152344 220.070312 245.476562 220.070312 C 245.800781 220.070312 246.125 220.101562 246.441406 220.164062 C 246.761719 220.226562 247.070312 220.320312 247.371094 220.445312 C 247.671875 220.570312 247.957031 220.722656 248.226562 220.902344 C 248.496094 221.082031 248.746094 221.289062 248.976562 221.515625 C 249.207031 221.746094 249.410156 221.996094 249.59375 222.265625 C 249.773438 222.535156 249.925781 222.820312 250.050781 223.121094 C 250.175781 223.421875 250.269531 223.730469 250.332031 224.046875 C 250.394531 224.367188 250.425781 224.6875 250.425781 225.011719 Z M 250.425781 225.011719"/></clipPath><clipPath id="E"><path d="M 129 155 L 139 155 L 139 166 L 129 166 Z M 129 155"/></clipPath><clipPath id="F"><path d="M 138.949219 160.539062 C 138.949219 160.863281 138.917969 161.183594 138.855469 161.503906 C 138.792969 161.820312 138.699219 162.128906 138.574219 162.429688 C 138.449219 162.730469 138.296875 163.015625 138.117188 163.285156 C 137.933594 163.554688 137.730469 163.804688 137.5 164.035156 C 137.269531 164.261719 137.019531 164.46875 136.75 164.648438 C 136.480469 164.828125 136.195312 164.980469 135.894531 165.105469 C 135.59375 165.230469 135.285156 165.324219 134.964844 165.386719 C 134.648438 165.449219 134.324219 165.480469 134 165.480469 C 133.675781 165.480469 133.351562 165.449219 133.035156 165.386719 C 132.714844 165.324219 132.40625 165.230469 132.105469 165.105469 C 131.804688 164.980469 131.519531 164.828125 131.25 164.648438 C 130.980469 164.46875 130.730469 164.261719 130.5 164.035156 C 130.269531 163.804688 130.066406 163.554688 129.882812 163.285156 C 129.703125 163.015625 129.550781 162.730469 129.425781 162.429688 C 129.300781 162.128906 129.207031 161.820312 129.144531 161.503906 C 129.082031 161.183594 129.050781 160.863281 129.050781 160.539062 C 129.050781 160.214844 129.082031 159.890625 129.144531 159.574219 C 129.207031 159.253906 129.300781 158.945312 129.425781 158.644531 C 129.550781 158.34375 129.703125 158.0625 129.882812 157.789062 C 130.066406 157.519531 130.269531 157.269531 130.5 157.042969 C 130.730469 156.8125 130.980469 156.605469 131.25 156.425781 C 131.519531 156.246094 131.804688 156.09375 132.105469 155.96875 C 132.40625 155.84375 132.714844 155.75 133.035156 155.6875 C 133.351562 155.625 133.675781 155.59375 134 155.59375 C 134.324219 155.59375 134.648438 155.625 134.964844 155.6875 C 135.285156 155.75 135.59375 155.84375 135.894531 155.96875 C 136.195312 156.09375 136.480469 156.246094 136.75 156.425781 C 137.019531 156.605469 137.269531 156.8125 137.5 157.042969 C 137.730469 157.269531 137.933594 157.519531 138.117188 157.789062 C 138.296875 158.0625 138.449219 158.34375 138.574219 158.644531 C 138.699219 158.945312 138.792969 159.253906 138.855469 159.574219 C 138.917969 159.890625 138.949219 160.214844 138.949219 160.539062 Z M 138.949219 160.539062"/></clipPath><clipPath id="H"><path d="M 129 220 L 139 220 L 139 230 L 129 230 Z M 129 220"/></clipPath><clipPath id="I"><path d="M 138.949219 225.011719 C 138.949219 225.339844 138.917969 225.660156 138.855469 225.976562 C 138.792969 226.296875 138.699219 226.605469 138.574219 226.90625 C 138.449219 227.207031 138.296875 227.492188 138.117188 227.761719 C 137.933594 228.03125 137.730469 228.28125 137.5 228.507812 C 137.269531 228.738281 137.019531 228.945312 136.75 229.125 C 136.480469 229.304688 136.195312 229.457031 135.894531 229.582031 C 135.59375 229.707031 135.285156 229.800781 134.964844 229.863281 C 134.648438 229.925781 134.324219 229.957031 134 229.957031 C 133.675781 229.957031 133.351562 229.925781 133.035156 229.863281 C 132.714844 229.800781 132.40625 229.707031 132.105469 229.582031 C 131.804688 229.457031 131.519531 229.304688 131.25 229.125 C 130.980469 228.945312 130.730469 228.738281 130.5 228.507812 C 130.269531 228.28125 130.066406 228.03125 129.882812 227.761719 C 129.703125 227.492188 129.550781 227.207031 129.425781 226.90625 C 129.300781 226.605469 129.207031 226.296875 129.144531 225.976562 C 129.082031 225.660156 129.050781 225.339844 129.050781 225.011719 C 129.050781 224.6875 129.082031 224.367188 129.144531 224.046875 C 129.207031 223.730469 129.300781 223.421875 129.425781 223.121094 C 129.550781 222.820312 129.703125 222.535156 129.882812 222.265625 C 130.066406 221.996094 130.269531 221.746094 130.5 221.515625 C 130.730469 221.289062 130.980469 221.082031 131.25 220.902344 C 131.519531 220.722656 131.804688 220.570312 132.105469 220.445312 C 132.40625 220.320312 132.714844 220.226562 133.035156 220.164062 C 133.351562 220.101562 133.675781 220.070312 134 220.070312 C 134.324219 220.070312 134.648438 220.101562 134.964844 220.164062 C 135.285156 220.226562 135.59375 220.320312 135.894531 220.445312 C 136.195312 220.570312 136.480469 220.722656 136.75 220.902344 C 137.019531 221.082031 137.269531 221.289062 137.5 221.515625 C 137.730469 221.746094 137.933594 221.996094 138.117188 222.265625 C 138.296875 222.535156 138.449219 222.820312 138.574219 223.121094 C 138.699219 223.421875 138.792969 223.730469 138.855469 224.046875 C 138.917969 224.367188 138.949219 224.6875 138.949219 225.011719 Z M 138.949219 225.011719"/></clipPath><clipPath id="K"><path d="M 18.9375 123.421875 L 72 123.421875 L 72 176 L 18.9375 176 Z M 18.9375 123.421875"/></clipPath><clipPath id="L"><path d="M 314 284 L 337 284 L 337 318.253906 L 314 318.253906 Z M 314 284"/></clipPath><clipPath id="M"><path d="M 299 284 L 326 284 L 326 318.253906 L 299 318.253906 Z M 299 284"/></clipPath><clipPath id="N"><path d="M 295.726562 284 L 326 284 L 326 318.253906 L 295.726562 318.253906 Z M 295.726562 284"/></clipPath><clipPath id="O"><path d="M 299 262.472656 L 315 262.472656 L 315 285 L 299 285 Z M 299 262.472656"/></clipPath><clipPath id="P"><path d="M 325 284 L 352 284 L 352 318.253906 L 325 318.253906 Z M 325 284"/></clipPath><clipPath id="Q"><path d="M 325 284 L 355.589844 284 L 355.589844 318.253906 L 325 318.253906 Z M 325 284"/></clipPath><clipPath id="R"><path d="M 336 262.472656 L 352 262.472656 L 352 285 L 336 285 Z M 336 262.472656"/></clipPath><clipPath id="S"><path d="M 23.96875 50.859375 L 83.832031 50.859375 L 83.832031 105.28125 L 23.96875 105.28125 Z M 23.96875 50.859375"/></clipPath><clipPath id="T"><path d="M 300.410156 192.945312 L 356.191406 192.945312 L 356.191406 248.726562 L 300.410156 248.726562 Z M 300.410156 192.945312"/></clipPath><clipPath id="U"><path d="M 247.820312 294.371094 L 298.160156 294.371094 L 298.160156 352.875 L 247.820312 352.875 Z M 247.820312 294.371094"/></clipPath><clipPath id="V"><path d="M 107.117188 22.414062 L 161.539062 22.414062 L 161.539062 68.671875 L 107.117188 68.671875 Z M 107.117188 22.414062"/></clipPath><linearGradient x1="24" gradientTransform="matrix(3.30007 0 0 3.2963 110.537 113.532)" xmlns:xlink="http://www.w3.org/1999/xlink" y1="43.5" x2="24" gradientUnits="userSpaceOnUse" y2="4.5" xlink:type="simple" xlink:actuate="onLoad" id="c" xlink:show="other"><stop stop-color="#FCFDFD" offset="0"/><stop stop-color="#FBFDFD" offset=".016"/><stop stop-color="#FBFCFD" offset=".031"/><stop stop-color="#FAFCFC" offset=".047"/><stop stop-color="#F9FCFC" offset=".063"/><stop stop-color="#F8FBFC" offset=".078"/><stop stop-color="#F7FBFB" offset=".094"/><stop stop-color="#F7FAFB" offset=".109"/><stop stop-color="#F6FAFA" offset=".125"/><stop stop-color="#F5F9FA" offset=".141"/><stop stop-color="#F4F9FA" offset=".156"/><stop stop-color="#F3F8F9" offset=".172"/><stop stop-color="#F3F8F9" offset=".188"/><stop stop-color="#F2F7F8" offset=".203"/><stop stop-color="#F1F7F8" offset=".219"/><stop stop-color="#F0F7F8" offset=".234"/><stop stop-color="#EFF6F7" offset=".25"/><stop stop-color="#EFF6F7" offset=".266"/><stop stop-color="#EEF5F7" offset=".281"/><stop stop-color="#EDF5F6" offset=".297"/><stop stop-color="#ECF4F6" offset=".313"/><stop stop-color="#EBF4F5" offset=".328"/><stop stop-color="#EBF3F5" offset=".344"/><stop stop-color="#EAF3F5" offset=".359"/><stop stop-color="#E9F2F4" offset=".375"/><stop stop-color="#E8F2F4" offset=".391"/><stop stop-color="#E7F1F3" offset=".406"/><stop stop-color="#E7F1F3" offset=".422"/><stop stop-color="#E6F1F3" offset=".438"/><stop stop-color="#E5F0F2" offset=".453"/><stop stop-color="#E4F0F2" offset=".469"/><stop stop-color="#E3EFF1" offset=".484"/><stop stop-color="#E3EFF1" offset=".5"/><stop stop-color="#E2EEF1" offset=".516"/><stop stop-color="#E1EEF0" offset=".531"/><stop stop-color="#E0EDF0" offset=".547"/><stop stop-color="#DFEDEF" offset=".563"/><stop stop-color="#DEECEF" offset=".578"/><stop stop-color="#DEECEF" offset=".594"/><stop stop-color="#DDECEE" offset=".609"/><stop stop-color="#DCEBEE" offset=".625"/><stop stop-color="#DBEBEE" offset=".641"/><stop stop-color="#DAEAED" offset=".656"/><stop stop-color="#DAEAED" offset=".672"/><stop stop-color="#D9E9EC" offset=".688"/><stop stop-color="#D8E9EC" offset=".703"/><stop stop-color="#D7E8EC" offset=".719"/><stop stop-color="#D6E8EB" offset=".734"/><stop stop-color="#D6E7EB" offset=".75"/><stop stop-color="#D5E7EA" offset=".766"/><stop stop-color="#D4E7EA" offset=".781"/><stop stop-color="#D3E6EA" offset=".797"/><stop stop-color="#D2E6E9" offset=".813"/><stop stop-color="#D2E5E9" offset=".828"/><stop stop-color="#D1E5E8" offset=".844"/><stop stop-color="#D0E4E8" offset=".859"/><stop stop-color="#CFE4E8" offset=".875"/><stop stop-color="#CEE3E7" offset=".891"/><stop stop-color="#CEE3E7" offset=".906"/><stop stop-color="#CDE2E6" offset=".922"/><stop stop-color="#CCE2E6" offset=".938"/><stop stop-color="#CBE1E6" offset=".945"/><stop stop-color="#CBE1E5" offset=".953"/><stop stop-color="#CAE0E5" offset=".961"/><stop stop-color="#CAE0E4" offset=".969"/><stop stop-color="#C9DFE4" offset=".977"/><stop stop-color="#C9DEE4" offset=".984"/><stop stop-color="#C8DEE3" offset=".992"/><stop stop-color="#C8DDE3" offset="1"/></linearGradient><linearGradient x1="24" gradientTransform="matrix(3.30007 0 0 3.2963 110.537 113.532)" xmlns:xlink="http://www.w3.org/1999/xlink" y1="43.5" x2="24" gradientUnits="userSpaceOnUse" y2="24" xlink:type="simple" xlink:actuate="onLoad" id="f" xlink:show="other"><stop stop-color="#FDFEFE" offset="0"/><stop stop-color="#FCFDFE" offset=".016"/><stop stop-color="#FBFDFD" offset=".031"/><stop stop-color="#FAFCFD" offset=".047"/><stop stop-color="#F9FCFC" offset=".063"/><stop stop-color="#F8FBFC" offset=".078"/><stop stop-color="#F7FBFB" offset=".094"/><stop stop-color="#F6FAFB" offset=".109"/><stop stop-color="#F5F9FA" offset=".125"/><stop stop-color="#F4F9FA" offset=".141"/><stop stop-color="#F3F8F9" offset=".156"/><stop stop-color="#F2F8F9" offset=".172"/><stop stop-color="#F1F7F8" offset=".188"/><stop stop-color="#F0F7F8" offset=".203"/><stop stop-color="#EFF6F7" offset=".219"/><stop stop-color="#EEF5F7" offset=".234"/><stop stop-color="#EDF5F6" offset=".25"/><stop stop-color="#ECF4F6" offset=".266"/><stop stop-color="#EBF4F5" offset=".281"/><stop stop-color="#EAF3F5" offset=".297"/><stop stop-color="#E9F3F4" offset=".313"/><stop stop-color="#E8F2F4" offset=".328"/><stop stop-color="#E7F2F3" offset=".344"/><stop stop-color="#E6F1F3" offset=".359"/><stop stop-color="#E5F0F2" offset=".375"/><stop stop-color="#E4F0F2" offset=".391"/><stop stop-color="#E3EFF1" offset=".406"/><stop stop-color="#E2EFF1" offset=".422"/><stop stop-color="#E1EEF1" offset=".438"/><stop stop-color="#E0EEF0" offset=".453"/><stop stop-color="#DFEDF0" offset=".469"/><stop stop-color="#DEECEF" offset=".484"/><stop stop-color="#DDECEF" offset=".5"/><stop stop-color="#DDEBEE" offset=".516"/><stop stop-color="#DCEBEE" offset=".531"/><stop stop-color="#DBEAED" offset=".547"/><stop stop-color="#DAEAED" offset=".563"/><stop stop-color="#D9E9EC" offset=".578"/><stop stop-color="#D8E9EC" offset=".594"/><stop stop-color="#D7E8EB" offset=".609"/><stop stop-color="#D6E7EB" offset=".625"/><stop stop-color="#D5E7EA" offset=".641"/><stop stop-color="#D4E6EA" offset=".656"/><stop stop-color="#D3E6E9" offset=".672"/><stop stop-color="#D2E5E9" offset=".688"/><stop stop-color="#D1E5E8" offset=".703"/><stop stop-color="#D0E4E8" offset=".719"/><stop stop-color="#CFE3E7" offset=".734"/><stop stop-color="#CEE3E7" offset=".75"/><stop stop-color="#CDE2E6" offset=".766"/><stop stop-color="#CCE2E6" offset=".773"/><stop stop-color="#CBE1E6" offset=".781"/><stop stop-color="#CBE1E5" offset=".789"/><stop stop-color="#CAE0E5" offset=".797"/><stop stop-color="#C9DFE4" offset=".805"/><stop stop-color="#C9DEE4" offset=".813"/><stop stop-color="#C8DEE3" offset=".82"/><stop stop-color="#C8DDE3" offset=".828"/><stop stop-color="#C7DCE2" offset=".836"/><stop stop-color="#C6DCE2" offset=".844"/><stop stop-color="#C6DBE1" offset=".852"/><stop stop-color="#C5DAE1" offset=".859"/><stop stop-color="#C4DAE1" offset=".867"/><stop stop-color="#C4D9E0" offset=".875"/><stop stop-color="#C3D8E0" offset=".883"/><stop stop-color="#C2D8DF" offset=".891"/><stop stop-color="#C2D7DF" offset=".898"/><stop stop-color="#C1D6DE" offset=".906"/><stop stop-color="#C0D6DE" offset=".914"/><stop stop-color="#C0D5DD" offset=".922"/><stop stop-color="#BFD4DD" offset=".93"/><stop stop-color="#BFD4DD" offset=".938"/><stop stop-color="#BED3DC" offset=".945"/><stop stop-color="#BDD2DC" offset=".953"/><stop stop-color="#BDD2DB" offset=".961"/><stop stop-color="#BCD1DB" offset=".969"/><stop stop-color="#BBD0DA" offset=".977"/><stop stop-color="#BBD0DA" offset=".984"/><stop stop-color="#BACFD9" offset=".992"/><stop stop-color="#B9CED9" offset="1"/></linearGradient><linearGradient x1="24" gradientTransform="matrix(3.30007 0 0 3.2963 110.537 113.532)" xmlns:xlink="http://www.w3.org/1999/xlink" y1="36" x2="24" gradientUnits="userSpaceOnUse" y2="12" xlink:type="simple" xlink:actuate="onLoad" id="i" xlink:show="other"><stop stop-color="#F3A56F" offset="0"/><stop stop-color="#F3A46F" offset=".016"/><stop stop-color="#F3A36F" offset=".031"/><stop stop-color="#F3A26E" offset=".047"/><stop stop-color="#F3A26E" offset=".063"/><stop stop-color="#F3A16E" offset=".078"/><stop stop-color="#F3A06D" offset=".094"/><stop stop-color="#F39F6D" offset=".109"/><stop stop-color="#F39E6D" offset=".125"/><stop stop-color="#F39D6D" offset=".141"/><stop stop-color="#F39C6C" offset=".156"/><stop stop-color="#F39B6C" offset=".172"/><stop stop-color="#F39B6C" offset=".188"/><stop stop-color="#F39A6B" offset=".203"/><stop stop-color="#F3996B" offset=".219"/><stop stop-color="#F3986B" offset=".234"/><stop stop-color="#F3976A" offset=".25"/><stop stop-color="#F3966A" offset=".266"/><stop stop-color="#F3956A" offset=".281"/><stop stop-color="#F3956A" offset=".297"/><stop stop-color="#F39469" offset=".313"/><stop stop-color="#F39369" offset=".32"/><stop stop-color="#F39369" offset=".328"/><stop stop-color="#F39269" offset=".336"/><stop stop-color="#F39169" offset=".344"/><stop stop-color="#F39169" offset=".352"/><stop stop-color="#F39069" offset=".359"/><stop stop-color="#F38F69" offset=".367"/><stop stop-color="#F28F69" offset=".375"/><stop stop-color="#F28E69" offset=".383"/><stop stop-color="#F28E69" offset=".391"/><stop stop-color="#F28D69" offset=".398"/><stop stop-color="#F28C69" offset=".406"/><stop stop-color="#F28C69" offset=".414"/><stop stop-color="#F28B69" offset=".422"/><stop stop-color="#F28A69" offset=".43"/><stop stop-color="#F28A69" offset=".438"/><stop stop-color="#F28969" offset=".445"/><stop stop-color="#F28969" offset=".453"/><stop stop-color="#F28869" offset=".461"/><stop stop-color="#F18769" offset=".469"/><stop stop-color="#F18769" offset=".477"/><stop stop-color="#F18669" offset=".484"/><stop stop-color="#F18669" offset=".492"/><stop stop-color="#F18569" offset=".5"/><stop stop-color="#F18469" offset=".508"/><stop stop-color="#F18469" offset=".516"/><stop stop-color="#F18369" offset=".523"/><stop stop-color="#F18269" offset=".531"/><stop stop-color="#F18269" offset=".539"/><stop stop-color="#F18169" offset=".547"/><stop stop-color="#F18169" offset=".555"/><stop stop-color="#F18069" offset=".563"/><stop stop-color="#F07F69" offset=".57"/><stop stop-color="#F07F69" offset=".578"/><stop stop-color="#F07E68" offset=".586"/><stop stop-color="#F07D68" offset=".594"/><stop stop-color="#F07D68" offset=".602"/><stop stop-color="#F07C68" offset=".609"/><stop stop-color="#F07C68" offset=".617"/><stop stop-color="#F07B68" offset=".625"/><stop stop-color="#F07A68" offset=".633"/><stop stop-color="#F07A68" offset=".641"/><stop stop-color="#F07968" offset=".648"/><stop stop-color="#F07968" offset=".656"/><stop stop-color="#EF7868" offset=".664"/><stop stop-color="#EF7768" offset=".672"/><stop stop-color="#EF7768" offset=".68"/><stop stop-color="#EF7668" offset=".688"/><stop stop-color="#EF7568" offset=".695"/><stop stop-color="#EF7568" offset=".703"/><stop stop-color="#EF7468" offset=".711"/><stop stop-color="#EF7468" offset=".719"/><stop stop-color="#EF7368" offset=".727"/><stop stop-color="#EF7268" offset=".734"/><stop stop-color="#EF7268" offset=".742"/><stop stop-color="#EF7168" offset=".75"/><stop stop-color="#EE7068" offset=".758"/><stop stop-color="#EE7068" offset=".766"/><stop stop-color="#EE6F68" offset=".773"/><stop stop-color="#EE6F68" offset=".781"/><stop stop-color="#EE6E68" offset=".789"/><stop stop-color="#EE6D68" offset=".797"/><stop stop-color="#EE6D68" offset=".805"/><stop stop-color="#EE6C68" offset=".813"/><stop stop-color="#EE6C68" offset=".82"/><stop stop-color="#EE6B68" offset=".828"/><stop stop-color="#EE6A68" offset=".836"/><stop stop-color="#EE6A68" offset=".844"/><stop stop-color="#ED6968" offset=".852"/><stop stop-color="#ED6868" offset=".859"/><stop stop-color="#ED6868" offset=".867"/><stop stop-color="#ED6768" offset=".875"/><stop stop-color="#ED6768" offset=".883"/><stop stop-color="#ED6668" offset=".891"/><stop stop-color="#ED6568" offset=".898"/><stop stop-color="#ED6568" offset=".906"/><stop stop-color="#ED6468" offset=".914"/><stop stop-color="#ED6368" offset=".922"/><stop stop-color="#ED6368" offset=".93"/><stop stop-color="#ED6268" offset=".938"/><stop stop-color="#EC6268" offset=".945"/><stop stop-color="#EC6168" offset=".953"/><stop stop-color="#EC6068" offset=".961"/><stop stop-color="#EC6068" offset=".969"/><stop stop-color="#EC5F68" offset=".977"/><stop stop-color="#EC5F68" offset=".984"/><stop stop-color="#EC5E68" offset=".992"/><stop stop-color="#EC5D68" offset="1"/></linearGradient><linearGradient x1="24" gradientTransform="matrix(3.30007 0 0 3.2963 110.537 113.532)" xmlns:xlink="http://www.w3.org/1999/xlink" y1="36" x2="24" gradientUnits="userSpaceOnUse" y2="27.46" xlink:type="simple" xlink:actuate="onLoad" id="l" xlink:show="other"><stop stop-color="#273998" offset="0"/><stop stop-color="#273997" offset=".063"/><stop stop-color="#263997" offset=".125"/><stop stop-color="#263996" offset=".188"/><stop stop-color="#263995" offset=".25"/><stop stop-color="#263994" offset=".313"/><stop stop-color="#263894" offset=".375"/><stop stop-color="#263893" offset=".438"/><stop stop-color="#263892" offset=".5"/><stop stop-color="#263891" offset=".563"/><stop stop-color="#263891" offset=".625"/><stop stop-color="#263890" offset=".688"/><stop stop-color="#25378F" offset=".75"/><stop stop-color="#25378E" offset=".813"/><stop stop-color="#25378E" offset=".875"/><stop stop-color="#25378D" offset=".938"/><stop stop-color="#25378C" offset="1"/></linearGradient><linearGradient x1="24" gradientTransform="matrix(3.30007 0 0 3.2963 110.537 113.532)" xmlns:xlink="http://www.w3.org/1999/xlink" y1="31.225" x2="24" gradientUnits="userSpaceOnUse" y2="27.47" xlink:type="simple" xlink:actuate="onLoad" id="o" xlink:show="other"><stop stop-color="#243585" offset="0"/><stop stop-color="#243585" offset=".031"/><stop stop-color="#243584" offset=".063"/><stop stop-color="#243583" offset=".094"/><stop stop-color="#243582" offset=".125"/><stop stop-color="#243581" offset=".156"/><stop stop-color="#233480" offset=".188"/><stop stop-color="#23347F" offset=".219"/><stop stop-color="#23347F" offset=".25"/><stop stop-color="#23347E" offset=".281"/><stop stop-color="#23347D" offset=".313"/><stop stop-color="#23347C" offset=".344"/><stop stop-color="#23337B" offset=".375"/><stop stop-color="#23337A" offset=".406"/><stop stop-color="#233379" offset=".438"/><stop stop-color="#223378" offset=".469"/><stop stop-color="#223378" offset=".5"/><stop stop-color="#237" offset=".531"/><stop stop-color="#223276" offset=".563"/><stop stop-color="#223275" offset=".594"/><stop stop-color="#223274" offset=".625"/><stop stop-color="#223273" offset=".656"/><stop stop-color="#223272" offset=".688"/><stop stop-color="#223172" offset=".719"/><stop stop-color="#213171" offset=".75"/><stop stop-color="#213170" offset=".781"/><stop stop-color="#21316F" offset=".813"/><stop stop-color="#21316E" offset=".844"/><stop stop-color="#21316D" offset=".875"/><stop stop-color="#21306C" offset=".906"/><stop stop-color="#21306B" offset=".938"/><stop stop-color="#21306B" offset=".969"/><stop stop-color="#21306A" offset="1"/></linearGradient><linearGradient x1="24" gradientTransform="matrix(3.30007 0 0 3.2963 110.537 113.532)" xmlns:xlink="http://www.w3.org/1999/xlink" y1="26.41" x2="24" gradientUnits="userSpaceOnUse" y2="16.81" xlink:type="simple" xlink:actuate="onLoad" id="r" xlink:show="other"><stop stop-color="#25368A" offset="0"/><stop stop-color="#25368A" offset=".063"/><stop stop-color="#253689" offset=".125"/><stop stop-color="#253688" offset=".188"/><stop stop-color="#243687" offset=".25"/><stop stop-color="#243686" offset=".313"/><stop stop-color="#243686" offset=".375"/><stop stop-color="#243585" offset=".438"/><stop stop-color="#243584" offset=".5"/><stop stop-color="#243583" offset=".563"/><stop stop-color="#243582" offset=".625"/><stop stop-color="#243581" offset=".688"/><stop stop-color="#243480" offset=".75"/><stop stop-color="#233480" offset=".813"/><stop stop-color="#23347F" offset=".875"/><stop stop-color="#23347E" offset=".938"/><stop stop-color="#23347D" offset="1"/></linearGradient><linearGradient x1="24" gradientTransform="matrix(3.30007 0 0 3.2963 110.537 113.532)" xmlns:xlink="http://www.w3.org/1999/xlink" y1="6.02" x2="24" gradientUnits="userSpaceOnUse" y2="3" xlink:type="simple" xlink:actuate="onLoad" id="u" xlink:show="other"><stop stop-color="#F28869" offset="0"/><stop stop-color="#F18769" offset=".031"/><stop stop-color="#F18669" offset=".063"/><stop stop-color="#F18569" offset=".094"/><stop stop-color="#F18469" offset=".125"/><stop stop-color="#F18469" offset=".156"/><stop stop-color="#F18369" offset=".188"/><stop stop-color="#F18269" offset=".219"/><stop stop-color="#F18169" offset=".25"/><stop stop-color="#F18069" offset=".281"/><stop stop-color="#F07F69" offset=".313"/><stop stop-color="#F07E69" offset=".344"/><stop stop-color="#F07E68" offset=".375"/><stop stop-color="#F07D68" offset=".406"/><stop stop-color="#F07C68" offset=".438"/><stop stop-color="#F07B68" offset=".469"/><stop stop-color="#F07A68" offset=".5"/><stop stop-color="#F07968" offset=".531"/><stop stop-color="#F07868" offset=".563"/><stop stop-color="#EF7868" offset=".594"/><stop stop-color="#EF7768" offset=".625"/><stop stop-color="#EF7668" offset=".656"/><stop stop-color="#EF7568" offset=".688"/><stop stop-color="#EF7468" offset=".719"/><stop stop-color="#EF7368" offset=".75"/><stop stop-color="#EF7268" offset=".781"/><stop stop-color="#EF7168" offset=".813"/><stop stop-color="#EE7168" offset=".844"/><stop stop-color="#EE7068" offset=".875"/><stop stop-color="#EE6F68" offset=".906"/><stop stop-color="#EE6E68" offset=".938"/><stop stop-color="#EE6D68" offset=".969"/><stop stop-color="#EE6C68" offset="1"/></linearGradient><linearGradient x1="24" gradientTransform="matrix(3.30007 0 0 3.2963 110.537 113.532)" xmlns:xlink="http://www.w3.org/1999/xlink" y1="45.02" x2="24" gradientUnits="userSpaceOnUse" y2="41.999" xlink:type="simple" xlink:actuate="onLoad" id="x" xlink:show="other"><stop stop-color="#F28869" offset="0"/><stop stop-color="#F18769" offset=".031"/><stop stop-color="#F18669" offset=".063"/><stop stop-color="#F18569" offset=".094"/><stop stop-color="#F18569" offset=".125"/><stop stop-color="#F18469" offset=".156"/><stop stop-color="#F18369" offset=".188"/><stop stop-color="#F18269" offset=".219"/><stop stop-color="#F18169" offset=".25"/><stop stop-color="#F18069" offset=".281"/><stop stop-color="#F07F69" offset=".313"/><stop stop-color="#F07E69" offset=".344"/><stop stop-color="#F07E68" offset=".375"/><stop stop-color="#F07D68" offset=".406"/><stop stop-color="#F07C68" offset=".438"/><stop stop-color="#F07B68" offset=".469"/><stop stop-color="#F07A68" offset=".5"/><stop stop-color="#F07968" offset=".531"/><stop stop-color="#F07868" offset=".563"/><stop stop-color="#EF7868" offset=".594"/><stop stop-color="#EF7768" offset=".625"/><stop stop-color="#EF7668" offset=".656"/><stop stop-color="#EF7568" offset=".688"/><stop stop-color="#EF7468" offset=".719"/><stop stop-color="#EF7368" offset=".75"/><stop stop-color="#EF7268" offset=".781"/><stop stop-color="#EF7268" offset=".813"/><stop stop-color="#EE7168" offset=".844"/><stop stop-color="#EE7068" offset=".875"/><stop stop-color="#EE6F68" offset=".906"/><stop stop-color="#EE6E68" offset=".938"/><stop stop-color="#EE6D68" offset=".969"/><stop stop-color="#EE6C68" offset="1"/></linearGradient><linearGradient x1="40.89" gradientTransform="matrix(3.30007 0 0 3.2963 110.537 113.532)" xmlns:xlink="http://www.w3.org/1999/xlink" y1="15.76" x2="40.89" gradientUnits="userSpaceOnUse" y2="12.76" xlink:type="simple" xlink:actuate="onLoad" id="A" xlink:show="other"><stop stop-color="#F18769" offset="0"/><stop stop-color="#F18769" offset=".031"/><stop stop-color="#F18669" offset=".063"/><stop stop-color="#F18569" offset=".094"/><stop stop-color="#F18469" offset=".125"/><stop stop-color="#F18469" offset=".156"/><stop stop-color="#F18369" offset=".188"/><stop stop-color="#F18269" offset=".219"/><stop stop-color="#F18169" offset=".25"/><stop stop-color="#F18069" offset=".281"/><stop stop-color="#F07F69" offset=".313"/><stop stop-color="#F07E69" offset=".344"/><stop stop-color="#F07E68" offset=".375"/><stop stop-color="#F07D68" offset=".406"/><stop stop-color="#F07C68" offset=".438"/><stop stop-color="#F07B68" offset=".469"/><stop stop-color="#F07A68" offset=".5"/><stop stop-color="#F07968" offset=".531"/><stop stop-color="#EF7868" offset=".563"/><stop stop-color="#EF7768" offset=".594"/><stop stop-color="#EF7768" offset=".625"/><stop stop-color="#EF7668" offset=".656"/><stop stop-color="#EF7568" offset=".688"/><stop stop-color="#EF7468" offset=".719"/><stop stop-color="#EF7368" offset=".75"/><stop stop-color="#EF7268" offset=".781"/><stop stop-color="#EF7168" offset=".813"/><stop stop-color="#EE7168" offset=".844"/><stop stop-color="#EE7068" offset=".875"/><stop stop-color="#EE6F68" offset=".906"/><stop stop-color="#EE6E68" offset=".938"/><stop stop-color="#EE6D68" offset=".969"/><stop stop-color="#EE6C68" offset="1"/></linearGradient><linearGradient x1="40.89" gradientTransform="matrix(3.30007 0 0 3.2963 110.537 113.532)" xmlns:xlink="http://www.w3.org/1999/xlink" y1="35.32" x2="40.89" gradientUnits="userSpaceOnUse" y2="32.32" xlink:type="simple" xlink:actuate="onLoad" id="D" xlink:show="other"><stop stop-color="#F18769" offset="0"/><stop stop-color="#F18769" offset=".031"/><stop stop-color="#F18669" offset=".063"/><stop stop-color="#F18569" offset=".094"/><stop stop-color="#F18469" offset=".125"/><stop stop-color="#F18469" offset=".156"/><stop stop-color="#F18369" offset=".188"/><stop stop-color="#F18269" offset=".219"/><stop stop-color="#F18169" offset=".25"/><stop stop-color="#F18069" offset=".281"/><stop stop-color="#F07F69" offset=".313"/><stop stop-color="#F07E69" offset=".344"/><stop stop-color="#F07E68" offset=".375"/><stop stop-color="#F07D68" offset=".406"/><stop stop-color="#F07C68" offset=".438"/><stop stop-color="#F07B68" offset=".469"/><stop stop-color="#F07A68" offset=".5"/><stop stop-color="#F07968" offset=".531"/><stop stop-color="#EF7868" offset=".563"/><stop stop-color="#EF7768" offset=".594"/><stop stop-color="#EF7768" offset=".625"/><stop stop-color="#EF7668" offset=".656"/><stop stop-color="#EF7568" offset=".688"/><stop stop-color="#EF7468" offset=".719"/><stop stop-color="#EF7368" offset=".75"/><stop stop-color="#EF7268" offset=".781"/><stop stop-color="#EF7168" offset=".813"/><stop stop-color="#EE7168" offset=".844"/><stop stop-color="#EE7068" offset=".875"/><stop stop-color="#EE6F68" offset=".906"/><stop stop-color="#EE6E68" offset=".938"/><stop stop-color="#EE6D68" offset=".969"/><stop stop-color="#EE6C68" offset="1"/></linearGradient><linearGradient x1="7.11" gradientTransform="matrix(3.30007 0 0 3.2963 110.537 113.532)" xmlns:xlink="http://www.w3.org/1999/xlink" y1="15.76" x2="7.11" gradientUnits="userSpaceOnUse" y2="12.76" xlink:type="simple" xlink:actuate="onLoad" id="G" xlink:show="other"><stop stop-color="#F18769" offset="0"/><stop stop-color="#F18769" offset=".031"/><stop stop-color="#F18669" offset=".063"/><stop stop-color="#F18569" offset=".094"/><stop stop-color="#F18469" offset=".125"/><stop stop-color="#F18469" offset=".156"/><stop stop-color="#F18369" offset=".188"/><stop stop-color="#F18269" offset=".219"/><stop stop-color="#F18169" offset=".25"/><stop stop-color="#F18069" offset=".281"/><stop stop-color="#F07F69" offset=".313"/><stop stop-color="#F07E69" offset=".344"/><stop stop-color="#F07E68" offset=".375"/><stop stop-color="#F07D68" offset=".406"/><stop stop-color="#F07C68" offset=".438"/><stop stop-color="#F07B68" offset=".469"/><stop stop-color="#F07A68" offset=".5"/><stop stop-color="#F07968" offset=".531"/><stop stop-color="#EF7868" offset=".563"/><stop stop-color="#EF7768" offset=".594"/><stop stop-color="#EF7768" offset=".625"/><stop stop-color="#EF7668" offset=".656"/><stop stop-color="#EF7568" offset=".688"/><stop stop-color="#EF7468" offset=".719"/><stop stop-color="#EF7368" offset=".75"/><stop stop-color="#EF7268" offset=".781"/><stop stop-color="#EF7168" offset=".813"/><stop stop-color="#EE7168" offset=".844"/><stop stop-color="#EE7068" offset=".875"/><stop stop-color="#EE6F68" offset=".906"/><stop stop-color="#EE6E68" offset=".938"/><stop stop-color="#EE6D68" offset=".969"/><stop stop-color="#EE6C68" offset="1"/></linearGradient><linearGradient x1="7.11" gradientTransform="matrix(3.30007 0 0 3.2963 110.537 113.532)" xmlns:xlink="http://www.w3.org/1999/xlink" y1="35.32" x2="7.11" gradientUnits="userSpaceOnUse" y2="32.32" xlink:type="simple" xlink:actuate="onLoad" id="J" xlink:show="other"><stop stop-color="#F18769" offset="0"/><stop stop-color="#F18769" offset=".031"/><stop stop-color="#F18669" offset=".063"/><stop stop-color="#F18569" offset=".094"/><stop stop-color="#F18469" offset=".125"/><stop stop-color="#F18469" offset=".156"/><stop stop-color="#F18369" offset=".188"/><stop stop-color="#F18269" offset=".219"/><stop stop-color="#F18169" offset=".25"/><stop stop-color="#F18069" offset=".281"/><stop stop-color="#F07F69" offset=".313"/><stop stop-color="#F07E69" offset=".344"/><stop stop-color="#F07E68" offset=".375"/><stop stop-color="#F07D68" offset=".406"/><stop stop-color="#F07C68" offset=".438"/><stop stop-color="#F07B68" offset=".469"/><stop stop-color="#F07A68" offset=".5"/><stop stop-color="#F07968" offset=".531"/><stop stop-color="#EF7868" offset=".563"/><stop stop-color="#EF7768" offset=".594"/><stop stop-color="#EF7768" offset=".625"/><stop stop-color="#EF7668" offset=".656"/><stop stop-color="#EF7568" offset=".688"/><stop stop-color="#EF7468" offset=".719"/><stop stop-color="#EF7368" offset=".75"/><stop stop-color="#EF7268" offset=".781"/><stop stop-color="#EF7168" offset=".813"/><stop stop-color="#EE7168" offset=".844"/><stop stop-color="#EE7068" offset=".875"/><stop stop-color="#EE6F68" offset=".906"/><stop stop-color="#EE6E68" offset=".938"/><stop stop-color="#EE6D68" offset=".969"/><stop stop-color="#EE6C68" offset="1"/></linearGradient></defs><g clip-path="url(#a)"><g clip-path="url(#b)"><path fill="url(#c)" d="M 134 128.367188 L 134 256.921875 L 245.476562 256.921875 L 245.476562 128.367188 Z M 134 128.367188"/></g></g><g clip-path="url(#d)"><g clip-path="url(#e)"><path fill="url(#f)" d="M 150.136719 192.644531 L 150.136719 256.921875 L 229.339844 256.921875 L 229.339844 192.644531 Z M 150.136719 192.644531"/></g></g><g clip-path="url(#g)"><g clip-path="url(#h)"><path fill="url(#i)" d="M 150.136719 153.089844 L 150.136719 232.199219 L 229.339844 232.199219 L 229.339844 153.089844 Z M 150.136719 153.089844"/></g></g><g clip-path="url(#j)"><g clip-path="url(#k)"><path fill="url(#l)" d="M 159.476562 204.050781 L 159.476562 232.199219 L 220 232.199219 L 220 204.050781 Z M 159.476562 204.050781"/></g></g><g clip-path="url(#m)"><g clip-path="url(#n)"><path fill="url(#o)" d="M 175.183594 204.082031 L 175.183594 216.457031 L 204.292969 216.457031 L 204.292969 204.082031 Z M 175.183594 204.082031"/></g></g><g clip-path="url(#p)"><g clip-path="url(#q)"><path fill="url(#r)" d="M 173.898438 168.941406 L 173.898438 200.585938 L 205.578125 200.585938 L 205.578125 168.941406 Z M 173.898438 168.941406"/></g></g><g clip-path="url(#s)"><g clip-path="url(#t)"><path fill="url(#u)" d="M 184.722656 123.421875 L 184.722656 133.375 L 194.691406 133.375 L 194.691406 123.421875 Z M 184.722656 123.421875"/></g></g><g clip-path="url(#v)"><g clip-path="url(#w)"><path fill="url(#x)" d="M 184.722656 251.976562 L 184.722656 261.933594 L 194.691406 261.933594 L 194.691406 251.976562 Z M 184.722656 251.976562"/></g></g><g clip-path="url(#y)"><g clip-path="url(#z)"><path fill="url(#A)" d="M 240.527344 155.59375 L 240.527344 165.480469 L 250.425781 165.480469 L 250.425781 155.59375 Z M 240.527344 155.59375"/></g></g><g clip-path="url(#B)"><g clip-path="url(#C)"><path fill="url(#D)" d="M 240.527344 220.070312 L 240.527344 229.957031 L 250.425781 229.957031 L 250.425781 220.070312 Z M 240.527344 220.070312"/></g></g><g clip-path="url(#E)"><g clip-path="url(#F)"><path fill="url(#G)" d="M 129.050781 155.59375 L 129.050781 165.480469 L 138.949219 165.480469 L 138.949219 155.59375 Z M 129.050781 155.59375"/></g></g><g clip-path="url(#H)"><g clip-path="url(#I)"><path fill="url(#J)" d="M 129.050781 220.070312 L 129.050781 229.957031 L 138.949219 229.957031 L 138.949219 220.070312 Z M 129.050781 220.070312"/></g></g><path stroke-linecap="round" transform="matrix(5.20453 4.32395 -4.34714 5.23245 253.225 233.19)" fill="none" d="M 0.500112 -0.0000421328 L 12.972603 -0.000180936" stroke="#004AAD"/><path stroke-linecap="round" transform="matrix(5.20453 4.32395 -4.34714 5.23245 55.845 94.14)" fill="none" d="M 0.500156 -0.000220192 L 12.972647 -0.000358994" stroke="#000"/><path stroke-linecap="round" transform="matrix(5.20453 4.32395 -4.34714 5.23245 55.845 163.664)" fill="none" d="M 0.500377 0.0000445186 L 12.972868 -0.0000942842" stroke="#545454"/><path stroke-linecap="round" transform="matrix(5.20453 4.32395 -4.34714 5.23245 200.662 265.09)" fill="none" d="M 0.50006 -0.000293026 L 12.97292 0.00000985085" stroke="#FF1616"/><path stroke-linecap="round" transform="matrix(5.20453 4.32395 -4.34714 5.23245 253.225 169.39)" fill="none" d="M 0.500039 -0.000129948 L 12.97253 -0.00026875" stroke="#008037"/><path stroke-linecap="round" transform="matrix(5.20453 4.32395 -4.34714 5.23245 109.29 62.24)" fill="none" d="M 0.500272 -0.0000179359 L 12.972763 -0.000156739" stroke="#FF914D"/><g clip-path="url(#K)"><path d="M 45.46875 123.972656 C 30.816406 123.972656 18.9375 135.851562 18.9375 150.507812 C 18.9375 162.226562 26.539062 172.171875 37.082031 175.679688 C 38.410156 175.921875 38.894531 175.105469 38.894531 174.402344 C 38.894531 173.773438 38.871094 172.101562 38.859375 169.890625 C 31.480469 171.492188 29.921875 166.332031 29.921875 166.332031 C 28.714844 163.269531 26.976562 162.453125 26.976562 162.453125 C 24.566406 160.804688 27.160156 160.839844 27.160156 160.839844 C 29.820312 161.027344 31.222656 163.574219 31.222656 163.574219 C 33.589844 167.628906 37.433594 166.457031 38.941406 165.78125 C 39.183594 164.066406 39.871094 162.894531 40.628906 162.234375 C 34.734375 161.5625 28.542969 159.289062 28.542969 149.121094 C 28.542969 146.222656 29.578125 143.855469 31.273438 142 C 31 141.328125 30.089844 138.632812 31.535156 134.980469 C 31.535156 134.980469 33.761719 134.265625 38.832031 137.699219 C 40.945312 137.109375 43.21875 136.816406 45.472656 136.804688 C 47.726562 136.816406 49.996094 137.109375 52.113281 137.699219 C 57.179688 134.265625 59.402344 134.980469 59.402344 134.980469 C 60.851562 138.632812 59.941406 141.328125 59.664062 142 C 61.367188 143.855469 62.390625 146.222656 62.390625 149.121094 C 62.390625 159.3125 56.1875 161.554688 50.277344 162.210938 C 51.230469 163.027344 52.082031 164.648438 52.082031 167.125 C 52.082031 170.667969 52.046875 173.53125 52.046875 174.402344 C 52.046875 175.113281 52.523438 175.9375 53.871094 175.675781 C 64.40625 172.160156 72 162.222656 72 150.507812 C 72 135.851562 60.121094 123.972656 45.46875 123.972656 Z M 45.46875 123.972656" fill-rule="evenodd"/></g><g clip-path="url(#L)"><path fill="#E24329" d="M 325.664062 318.246094 L 336.597656 284.097656 L 314.734375 284.097656 Z M 325.664062 318.246094"/></g><g clip-path="url(#M)"><path fill="#FC6D26" d="M 325.664062 318.246094 L 314.734375 284.097656 L 299.417969 284.097656 Z M 325.664062 318.246094"/></g><g clip-path="url(#N)"><path fill="#FCA326" d="M 299.417969 284.097656 L 296.09375 294.476562 C 295.792969 295.421875 296.125 296.457031 296.917969 297.042969 L 325.664062 318.246094 Z M 299.417969 284.097656"/></g><g clip-path="url(#O)"><path fill="#E24329" d="M 299.417969 284.097656 L 314.734375 284.097656 L 308.152344 263.527344 C 307.8125 262.46875 306.339844 262.472656 306 263.527344 Z M 299.417969 284.097656"/></g><g clip-path="url(#P)"><path fill="#FC6D26" d="M 325.664062 318.246094 L 336.597656 284.097656 L 351.914062 284.097656 Z M 325.664062 318.246094"/></g><g clip-path="url(#Q)"><path fill="#FCA326" d="M 351.914062 284.097656 L 355.234375 294.476562 C 355.539062 295.421875 355.207031 296.457031 354.414062 297.042969 L 325.664062 318.246094 Z M 351.914062 284.097656"/></g><g clip-path="url(#R)"><path fill="#E24329" d="M 351.914062 284.097656 L 336.597656 284.097656 L 343.179688 263.527344 C 343.519531 262.46875 344.992188 262.472656 345.332031 263.527344 Z M 351.914062 284.097656"/></g><g clip-path="url(#S)"><path fill="#2680F8" d="M 34.640625 105.183594 L 73.539062 105.183594 C 74.480469 105.195312 75.292969 104.503906 75.449219 103.5625 L 83.558594 53.21875 C 83.726562 52.167969 83.023438 51.179688 81.980469 51.007812 C 81.875 50.996094 81.765625 50.984375 81.648438 50.984375 L 25.902344 50.960938 C 24.851562 50.949219 23.976562 51.792969 23.96875 52.871094 C 23.96875 52.980469 23.980469 53.101562 23.992188 53.210938 L 32.101562 102.984375 C 32.304688 104.238281 33.378906 105.167969 34.640625 105.183594 Z M 63.054688 69.175781 L 60.046875 86.933594 L 47.628906 86.933594 L 44.269531 69.175781 Z M 63.054688 69.175781"/></g><g clip-path="url(#T)"><path d="M 307.382812 192.945312 L 349.21875 192.945312 C 353.070312 192.945312 356.191406 196.066406 356.191406 199.917969 L 356.191406 241.753906 C 356.191406 245.605469 353.070312 248.726562 349.21875 248.726562 L 307.382812 248.726562 C 303.53125 248.726562 300.410156 245.605469 300.410156 241.753906 L 300.410156 199.917969 C 300.410156 196.066406 303.53125 192.945312 307.382812 192.945312 Z M 307.382812 192.945312"/></g><path fill="#FFF" d="M 328.300781 201.328125 L 309.125 213.789062 L 309.125 226.140625 L 328.300781 238.605469 L 347.476562 226.140625 L 347.476562 213.789062 Z M 340.886719 219.964844 L 343.988281 217.949219 L 343.988281 221.984375 Z M 342.53125 214.734375 L 337.6875 217.886719 L 328.300781 211.785156 L 318.914062 217.886719 L 314.066406 214.734375 L 328.300781 205.484375 Z M 334.488281 219.964844 L 328.300781 223.988281 L 322.109375 219.964844 L 328.300781 215.941406 Z M 315.714844 219.964844 L 312.609375 221.984375 L 312.609375 217.949219 Z M 314.066406 225.195312 L 318.914062 222.046875 L 328.300781 228.144531 L 337.6875 222.042969 L 342.53125 225.195312 L 328.300781 234.449219 Z M 314.066406 225.195312"/><path fill="#808080" d="M 296.558594 337.21875 L 296.355469 309.910156 L 272.890625 296.199219 L 249.425781 309.910156 L 249.425781 337.335938 L 272.890625 351.046875 Z M 296.558594 337.21875"/><path fill="#FFF" d="M 291.628906 326.234375 L 284.136719 330.480469 L 284.136719 338.496094 L 275.238281 343.734375 L 275.238281 324.867188 L 291.628906 315.382812 Z M 291.628906 326.234375"/><path fill="#FFF" d="M 270.65625 343.585938 L 261.851562 338.40625 L 261.851562 330.46875 L 254.4375 326.269531 L 254.4375 315.53125 L 270.65625 324.914062 Z M 270.65625 343.585938"/><path fill="#FFF" d="M 256.550781 311.105469 L 256.546875 311.101562 L 265.277344 305.980469 L 272.929688 310.449219 L 280.539062 306.03125 L 289.171875 311.023438 L 272.84375 320.515625 Z M 256.550781 311.105469"/><g clip-path="url(#U)"><path d="M 272.890625 352.875 C 272.582031 352.875 272.269531 352.792969 271.992188 352.628906 L 248.75 338.917969 C 248.199219 338.589844 247.855469 337.988281 247.855469 337.335938 L 247.855469 309.910156 C 247.855469 309.257812 248.199219 308.65625 248.75 308.328125 L 271.992188 294.617188 C 272.546875 294.289062 273.230469 294.289062 273.785156 294.613281 L 297.226562 308.328125 C 297.78125 308.652344 298.128906 309.257812 298.128906 309.910156 L 298.128906 337.21875 C 298.128906 337.875 297.785156 338.476562 297.230469 338.800781 L 273.792969 352.628906 C 273.515625 352.792969 273.203125 352.875 272.890625 352.875 Z M 251.445312 336.28125 L 272.890625 348.933594 L 294.535156 336.167969 L 294.535156 310.96875 L 272.894531 298.3125 L 251.445312 310.964844 Z M 296.332031 337.21875 L 296.355469 337.21875 Z M 296.332031 337.21875"/></g><path d="M 275.324219 345.5625 C 275.015625 345.5625 274.707031 345.480469 274.433594 345.316406 C 273.875 344.992188 273.53125 344.386719 273.53125 343.734375 L 273.53125 324.867188 C 273.53125 324.210938 273.875 323.605469 274.433594 323.28125 L 290.652344 313.800781 C 291.203125 313.476562 291.890625 313.476562 292.445312 313.800781 C 292.996094 314.128906 293.339844 314.734375 293.339844 315.382812 L 293.339844 326.234375 C 293.339844 326.898438 292.992188 327.507812 292.421875 327.832031 L 285.921875 331.550781 L 285.921875 338.496094 C 285.921875 339.144531 285.582031 339.746094 285.03125 340.070312 L 276.226562 345.308594 C 275.949219 345.476562 275.636719 345.5625 275.324219 345.5625 Z M 277.121094 325.925781 L 277.121094 340.550781 L 282.335938 337.449219 L 282.335938 330.484375 C 282.335938 329.824219 282.683594 329.214844 283.253906 328.890625 L 289.75 325.164062 L 289.75 318.542969 Z M 291.542969 326.234375 L 291.566406 326.234375 Z M 291.542969 326.234375"/><path d="M 270.65625 345.5625 C 270.34375 345.5625 270.03125 345.476562 269.753906 345.308594 L 260.949219 340.074219 C 260.398438 339.746094 260.058594 339.144531 260.058594 338.496094 L 260.058594 331.546875 L 253.5625 327.828125 C 252.992188 327.503906 252.644531 326.894531 252.644531 326.234375 L 252.644531 315.382812 C 252.644531 314.730469 252.984375 314.128906 253.539062 313.800781 C 254.09375 313.476562 254.777344 313.472656 255.332031 313.800781 L 271.550781 323.28125 C 272.109375 323.609375 272.453125 324.210938 272.453125 324.867188 L 272.453125 343.734375 C 272.453125 344.390625 272.109375 344.992188 271.550781 345.316406 C 271.277344 345.480469 270.964844 345.5625 270.65625 345.5625 Z M 263.652344 337.445312 L 268.863281 340.546875 L 268.863281 325.921875 L 256.234375 318.542969 L 256.234375 325.164062 L 262.734375 328.882812 C 263.300781 329.207031 263.652344 329.816406 263.652344 330.476562 Z M 263.652344 337.445312"/><path d="M 272.945312 322.378906 C 272.636719 322.378906 272.328125 322.296875 272.054688 322.132812 L 255.867188 312.679688 C 255.308594 312.355469 254.964844 311.753906 254.964844 311.101562 C 254.960938 310.449219 255.300781 309.84375 255.855469 309.515625 L 264.523438 304.371094 C 265.082031 304.042969 265.773438 304.039062 266.328125 304.367188 L 273.039062 308.328125 L 279.695312 304.417969 C 280.25 304.09375 280.933594 304.09375 281.484375 304.417969 L 290.066406 309.429688 C 290.621094 309.753906 290.96875 310.359375 290.96875 311.011719 C 290.96875 311.667969 290.625 312.273438 290.070312 312.597656 L 273.847656 322.132812 C 273.566406 322.292969 273.257812 322.378906 272.945312 322.378906 Z M 260.34375 311.082031 L 272.945312 318.441406 L 285.570312 311.019531 L 280.59375 308.113281 L 273.933594 312.023438 C 273.375 312.351562 272.6875 312.347656 272.136719 312.023438 L 265.433594 308.066406 Z M 260.34375 311.082031"/><g clip-path="url(#V)"><path d="M 158.695312 68.53125 L 109.960938 68.53125 C 109.472656 68.53125 109.019531 68.40625 108.597656 68.164062 C 108.175781 67.917969 107.84375 67.582031 107.605469 67.160156 C 107.363281 66.734375 107.246094 66.277344 107.253906 65.792969 C 107.257812 65.304688 107.386719 64.851562 107.640625 64.433594 L 132.007812 23.867188 C 132.128906 23.667969 132.269531 23.484375 132.4375 23.320312 C 132.605469 23.160156 132.789062 23.019531 132.996094 22.90625 C 133.199219 22.789062 133.414062 22.703125 133.640625 22.644531 C 133.863281 22.582031 134.09375 22.554688 134.328125 22.554688 C 134.5625 22.554688 134.792969 22.582031 135.019531 22.644531 C 135.246094 22.703125 135.460938 22.789062 135.664062 22.90625 C 135.867188 23.019531 136.050781 23.160156 136.21875 23.320312 C 136.386719 23.484375 136.53125 23.667969 136.648438 23.867188 L 161.019531 64.433594 C 161.269531 64.851562 161.398438 65.304688 161.402344 65.792969 C 161.410156 66.277344 161.292969 66.734375 161.050781 67.160156 C 160.8125 67.582031 160.480469 67.917969 160.058594 68.164062 C 159.636719 68.40625 159.183594 68.53125 158.695312 68.53125 Z M 114.742188 63.121094 L 153.914062 63.121094 L 134.328125 30.515625 Z M 114.742188 63.121094"/></g></svg>